<?xml version="1.0" encoding="UTF-8"?>
<!DOCTYPE svg PUBLIC "-//W3C//DTD SVG 1.1//EN" "http://www.w3.org/Graphics/SVG/1.1/DTD/svg11.dtd">
<!-- Creator: CorelDRAW 2020 (64 Bit Versão de avaliação) -->
<svg xmlns="http://www.w3.org/2000/svg" xml:space="preserve" width="70.973mm" height="21.0108mm" version="1.1" style="shape-rendering:geometricPrecision; text-rendering:geometricPrecision; image-rendering:optimizeQuality; fill-rule:evenodd; clip-rule:evenodd"
viewBox="0 0 6899.23 2042.44"
 xmlns:xlink="http://www.w3.org/1999/xlink"
 xmlns:xodm="http://www.corel.com/coreldraw/odm/2003">
 <defs>
  <style type="text/css">
   <![CDATA[
    .fil2 {fill:#03598C}
    .fil1 {fill:#81A64A}
    .fil4 {fill:#CA3438}
    .fil3 {fill:#F58634}
    .fil5 {fill:#FFCC29}
    .fil0 {fill:#373435;fill-rule:nonzero}
   ]]>
  </style>
 </defs>
 <g id="Camada_x0020_1">
  <metadata id="CorelCorpID_0Corel-Layer"/>
  <path class="fil0" d="M2742.58 850.22l0 -801 429.15 0c36.4,0 69.34,8.57 98.82,25.74 29.48,17.17 53.14,41 70.98,71.53 17.84,30.5 26.75,66.74 26.75,108.7 0,26.7 -5.09,52.07 -15.28,76.1 -10.2,24.04 -24.03,44.82 -41.5,62.37 -17.48,17.55 -37.86,31.28 -61.15,41.19 26.94,9.16 50.78,23.85 71.53,44.06 20.75,20.21 37.13,43.86 49.14,70.94 12.02,27.08 18.02,56.26 18.02,87.54 0,42.72 -9.28,80.11 -27.85,112.14 -18.56,32.04 -43.13,56.84 -73.7,74.38 -30.58,17.55 -64.79,26.31 -102.65,26.31l-442.25 0zm156.16 -144.18l241.32 0c17.47,0 33.13,-4.38 46.96,-13.15 13.83,-8.78 24.93,-20.61 33.3,-35.48 8.37,-14.87 12.56,-31.09 12.56,-48.63 0,-18.3 -4.19,-34.7 -12.56,-49.2 -8.37,-14.49 -19.47,-26.13 -33.3,-34.91 -13.83,-8.77 -29.49,-13.16 -46.96,-13.16l-241.32 0 0 194.53zm0 -331.84l227.13 0c16.01,0 30.57,-4.01 43.69,-12.02 13.1,-8.01 23.48,-18.89 31.12,-32.61 7.64,-13.74 11.46,-28.99 11.46,-45.78 0,-16.78 -3.82,-32.04 -11.46,-45.77 -7.64,-13.74 -18.01,-24.6 -31.12,-32.61 -13.11,-8.01 -27.68,-12.02 -43.69,-12.02l-227.13 0 0 180.8zm773.05 489.76c-50.97,0 -95.37,-13.74 -133.23,-41.2 -37.85,-27.46 -67.16,-64.26 -87.91,-110.42 -20.74,-46.15 -31.12,-97.07 -31.12,-152.76 0,-57.22 11.83,-109.09 35.49,-155.63 23.65,-46.53 57.68,-83.34 102.1,-110.42 44.41,-27.08 97.55,-40.62 159.42,-40.62 62.61,0 115.39,13.73 158.34,41.2 42.95,27.46 75.72,64.46 98.28,110.99 22.57,46.53 33.86,98.04 33.86,154.48l0 290.65 -149.6 0 0 -97.26 -2.19 0c-10.92,20.59 -24.57,39.28 -40.94,56.07 -16.38,16.78 -36.22,30.13 -59.52,40.05 -23.29,9.92 -50.96,14.87 -82.99,14.87zm42.59 -133.89c29.12,0 54.23,-7.63 75.35,-22.88 21.11,-15.25 37.31,-36.05 48.59,-62.36 11.29,-26.32 16.92,-55.51 16.92,-87.55 0,-32.04 -5.64,-60.83 -16.92,-86.39 -11.29,-25.56 -27.48,-45.96 -48.59,-61.22 -21.11,-15.26 -46.22,-22.89 -75.35,-22.89 -29.84,0 -55.51,7.63 -76.99,22.89 -21.47,15.26 -37.85,35.67 -49.14,61.22 -11.29,25.56 -16.92,54.35 -16.92,86.39 0,32.04 5.64,61.22 16.92,87.55 11.29,26.31 27.67,47.11 49.14,62.36 21.48,15.25 47.15,22.88 76.99,22.88zm383.21 120.15l0 -835.34 149.6 0 0 292.94c23.29,-19.83 48.4,-33.95 75.35,-42.33 26.94,-8.39 53.5,-12.59 79.71,-12.59 53.87,0 98.46,11.82 133.77,35.47 35.31,23.65 61.7,55.31 79.17,94.98 17.47,39.66 26.21,83.53 26.21,131.59l0 335.27 -149.6 0 0 -335.27c0,-23.65 -5.46,-45.2 -16.39,-64.65 -10.92,-19.45 -25.66,-34.91 -44.22,-46.35 -18.57,-11.44 -39.14,-17.17 -61.7,-17.17 -21.84,0 -42.04,5.53 -60.61,16.6 -18.56,11.05 -33.48,25.94 -44.76,44.62 -11.29,18.69 -16.92,39.48 -16.92,62.37l0 339.85 -149.6 0zm634.37 0l0 -583.6 150.69 0 0 583.6 -150.69 0zm75.35 -653.39c-25.48,0 -47.5,-9.73 -66.07,-29.18 -18.56,-19.45 -27.84,-42.53 -27.84,-69.22 0,-26.7 9.28,-49.78 27.84,-69.24 18.58,-19.45 40.59,-29.17 66.07,-29.17 25.48,0 47.5,9.72 66.06,29.17 18.57,19.46 27.85,42.54 27.85,69.24 0,26.69 -9.28,49.77 -27.85,69.22 -18.57,19.45 -40.58,29.18 -66.06,29.18zm384.3 667.13c-50.96,0 -95.37,-13.74 -133.23,-41.2 -37.85,-27.46 -67.16,-64.26 -87.91,-110.42 -20.74,-46.15 -31.12,-97.07 -31.12,-152.76 0,-57.22 11.83,-109.09 35.49,-155.63 23.66,-46.53 57.69,-83.34 102.1,-110.42 44.41,-27.08 97.55,-40.62 159.43,-40.62 62.6,0 115.39,13.73 158.33,41.2 42.95,27.46 75.72,64.46 98.28,110.99 22.57,46.53 33.85,98.04 33.85,154.48l0 290.65 -149.6 0 0 -97.26 -2.19 0c-10.92,20.59 -24.57,39.28 -40.94,56.07 -16.38,16.78 -36.22,30.13 -59.51,40.05 -23.3,9.92 -50.97,14.87 -83,14.87zm42.59 -133.89c29.12,0 54.23,-7.63 75.35,-22.88 21.11,-15.25 37.31,-36.05 48.59,-62.36 11.29,-26.32 16.92,-55.51 16.92,-87.55 0,-32.04 -5.64,-60.83 -16.92,-86.39 -11.29,-25.56 -27.48,-45.96 -48.59,-61.22 -21.11,-15.26 -46.22,-22.89 -75.35,-22.89 -29.84,0 -55.51,7.63 -76.98,22.89 -21.48,15.26 -37.86,35.67 -49.15,61.22 -11.28,25.56 -16.92,54.35 -16.92,86.39 0,32.04 5.65,61.22 16.92,87.55 11.29,26.31 27.67,47.11 49.15,62.36 21.47,15.25 47.14,22.88 76.98,22.88zm576.49 120.15c-49.5,0 -88.28,-14.87 -116.3,-44.62 -28.03,-29.76 -42.04,-70.19 -42.04,-121.3l0 -564.14 149.61 0 0 559.57c0,9.92 3.45,18.5 10.36,25.74 6.92,7.25 15.12,10.88 24.57,10.88l121.21 0 0 133.88 -147.42 0zm-253.34 -449.71l0 -133.89 400.75 0 0 133.89 -400.75 0zm722.82 449.71c-63.34,0 -118.49,-12.77 -165.44,-38.33 -46.95,-25.56 -83.36,-60.45 -109.2,-104.7 -25.85,-44.25 -38.78,-93.84 -38.78,-148.76 0,-61.8 12.02,-115.57 36.05,-161.35 24.02,-45.78 56.78,-81.25 98.27,-106.42 41.5,-25.17 88.46,-37.76 140.88,-37.76 62.6,0 113.38,13.73 152.34,41.2 38.94,27.46 67.52,64.26 85.72,110.42 18.2,46.15 27.31,97.46 27.31,153.91 0,7.63 -0.37,16.59 -1.1,26.89 -0.73,10.3 -1.82,18.12 -3.28,23.46l-376.74 0c5.83,23.65 15.84,43.48 30.04,59.51 14.19,16.02 32.03,28.03 53.5,36.05 21.48,8.01 45.68,12.02 72.62,12.02l155.07 0 0 133.88 -157.25 0zm-155.07 -346.72l232.59 0c-1.45,-14.5 -4.01,-28.04 -7.64,-40.62 -3.64,-12.59 -8.74,-23.85 -15.29,-33.76 -6.55,-9.92 -14.19,-18.31 -22.93,-25.18 -8.73,-6.86 -18.93,-12.2 -30.57,-16.02 -11.65,-3.81 -24.39,-5.72 -38.22,-5.72 -18.2,0 -34.39,3.43 -48.59,10.29 -14.19,6.87 -26.02,16.02 -35.49,27.46 -9.46,11.45 -16.92,24.42 -22.38,38.9 -5.46,14.5 -9.28,29.38 -11.47,44.64zm704.25 346.72c-57.51,0 -108.84,-12.97 -153.97,-38.9 -45.13,-25.94 -80.81,-60.84 -107.02,-104.7 -26.2,-43.86 -39.31,-93.26 -39.31,-148.19 0,-54.92 13.11,-104.32 39.31,-148.19 26.21,-43.87 61.88,-78.77 107.02,-104.7 45.13,-25.94 96.46,-38.91 153.97,-38.91l69.89 0 0 133.89 -69.89 0c-30.57,0 -56.95,6.87 -79.17,20.6 -22.2,13.73 -39.31,32.61 -51.32,56.64 -12.02,24.03 -18.02,50.92 -18.02,80.67 0,29.76 6.01,56.64 18.02,80.67 12.01,24.03 29.11,42.91 51.32,56.64 22.21,13.73 48.59,20.6 79.17,20.6l69.89 0 0 133.88 -69.89 0z"/>
  <path class="fil0" d="M4070.47 2042.43c-79.46,0 -151.1,-14.12 -214.95,-42.37 -63.85,-28.25 -118.47,-67.15 -163.88,-116.71 -45.4,-49.56 -80.39,-107.05 -104.99,-172.47 -24.6,-65.41 -36.89,-135.3 -36.89,-209.63 0,-74.34 12.29,-143.97 36.89,-208.89 24.59,-64.92 59.59,-122.16 104.99,-171.72 45.41,-49.56 100.03,-88.21 163.88,-115.96 63.85,-27.75 135.49,-41.63 214.95,-41.63 79.45,0 151.1,13.88 214.95,41.63 63.84,27.75 118.46,66.4 163.87,115.96 45.41,49.56 80.4,106.8 105,171.72 24.59,64.93 36.88,134.56 36.88,208.89 0,74.34 -12.29,144.22 -36.88,209.63 -24.59,65.42 -59.59,122.91 -105,172.47 -45.41,49.56 -100.03,88.46 -163.87,116.71 -63.85,28.25 -135.5,42.37 -214.95,42.37zm0 -188.82c45.4,0 87.49,-8.67 126.26,-26.01 38.79,-17.35 72.61,-42.13 101.45,-74.35 28.85,-32.21 51.07,-69.63 66.7,-112.25 15.59,-42.63 23.4,-89.21 23.4,-139.76 0,-50.55 -7.81,-97.13 -23.4,-139.75 -15.62,-42.63 -37.84,-79.8 -66.7,-111.51 -28.84,-31.72 -62.66,-56.25 -101.45,-73.6 -38.78,-17.35 -80.87,-26.02 -126.26,-26.02 -45.41,0 -87.5,8.67 -126.27,26.02 -38.79,17.34 -72.6,41.88 -101.45,73.6 -28.84,31.71 -51.07,68.88 -66.68,111.51 -15.61,42.62 -23.42,89.2 -23.42,139.75 0,50.55 7.81,97.13 23.42,139.76 15.6,42.62 37.83,80.04 66.68,112.25 28.85,32.22 62.66,56.99 101.45,74.35 38.78,17.34 80.87,26.01 126.27,26.01z"/>
  <path class="fil0" d="M6253.68 1511.66l217.07 0c32.16,0 61.48,-6.7 87.96,-20.07 26.48,-13.38 47.54,-32.95 63.14,-58.72 15.6,-25.77 23.41,-56.5 23.41,-92.18 0,-35.69 -8.03,-66.4 -24.12,-92.18 -16.08,-25.77 -37.12,-45.34 -63.14,-58.72 -26,-13.38 -55.1,-20.06 -87.25,-20.06l-217.07 0 0 341.95zm-202.89 511.45l0 -1040.73 444.09 0c65.26,0 124.61,15.12 178.05,45.34 53.45,30.23 96,72.11 127.69,125.63 31.69,53.52 47.53,115.96 47.53,187.33 0,69.38 -15.6,130.59 -46.82,183.61 -31.21,53.04 -72.35,94.92 -123.44,125.63l90.8 166.52c3.78,5.95 8.52,10.66 14.19,14.12 5.68,3.47 12.3,5.2 19.86,5.2l96.48 0 0 187.34 -127.69 0c-39.72,0 -75.9,-10.41 -108.53,-31.22 -32.63,-20.81 -58.41,-48.08 -77.33,-81.77l-112.08 -211.12c-8.52,0 -17.26,0 -26.25,0 -8.98,0 -17.74,0 -26.25,0l-167.41 0 0 324.11 -202.89 0z"/>
  <path class="fil0" d="M5348.58 1626.14l341.93 0 -143.3 -456.44c-1.9,-6.94 -4.97,-11.9 -9.23,-14.87 -4.26,-2.97 -9.23,-4.46 -14.9,-4.46 -5.67,0 -10.39,1.74 -14.18,5.2 -3.78,3.47 -6.62,8.19 -8.52,14.13l-151.81 456.44zm-343.34 396.96l323.48 -924.77c16.08,-44.6 41.38,-78.05 75.9,-100.36 34.53,-22.3 73.55,-33.44 117.06,-33.44 43.51,0 82.75,10.65 117.76,31.95 35,21.31 60.06,54.77 75.19,100.36l324.91 926.26 -222.75 0 -66.69 -209.64 -462.53 0 -69.52 209.64 -212.81 0z"/>
  <path class="fil0" d="M4944.34 2023.11c-58.65,0 -110.2,-14.12 -154.65,-42.37 -44.46,-28.25 -78.98,-65.92 -103.58,-113 -24.59,-47.09 -36.89,-98.87 -36.89,-155.37l0 -729.99 202.89 0 0 755.27c0,26.76 8.98,49.81 26.96,69.14 17.97,19.33 39.73,28.99 65.27,28.99l262.47 0 0 187.34 -262.47 0z"/>
  <path class="fil0" d="M2783.73 2023.11l0 -187.34 425.63 0c20.81,0 39.73,-5.44 56.76,-16.35 17.02,-10.9 30.74,-25.52 41.14,-43.86 10.4,-18.33 15.6,-38.41 15.6,-60.21 0,-22.8 -5.2,-43.37 -15.6,-61.7 -10.4,-18.33 -24.12,-32.96 -41.14,-43.86 -17.03,-10.9 -35.95,-16.35 -56.76,-16.35l-165.99 0c-55.81,0 -106.41,-11.9 -151.81,-35.69 -45.4,-23.79 -81.58,-58.24 -108.54,-103.33 -26.95,-45.1 -40.43,-99.37 -40.43,-162.8 0,-62.45 12.76,-116.71 38.3,-162.8 25.54,-46.1 60.07,-82.03 103.58,-107.8 43.51,-25.77 91.76,-38.65 144.72,-38.65l431.32 0 0 187.33 -411.45 0c-18.92,0 -36.42,5.2 -52.5,15.6 -16.08,10.41 -28.61,24.04 -37.59,40.89 -8.98,16.86 -13.48,35.69 -13.48,56.5 0,20.82 4.5,39.65 13.48,56.5 8.98,16.86 21.51,30.23 37.59,40.15 16.08,9.91 33.59,14.86 52.5,14.86l171.67 0c61.48,0 114.92,12.39 160.33,37.17 45.4,24.78 80.64,59.47 105.7,104.07 25.06,44.6 37.6,96.64 37.6,156.11 0,70.37 -13.01,130.34 -39.02,179.9 -26.01,49.57 -61.01,87.23 -104.99,113 -43.99,25.77 -92.47,38.66 -145.42,38.66l-451.18 0z"/>
  <rect class="fil1" transform="matrix(0.26938 -0.0686738 0.0686737 0.26938 -11.2851 510.195)" width="3412.18" height="3395.03" rx="188.03" ry="188.03"/>
  <rect class="fil2" transform="matrix(0.280916 0.0251308 -0.0234512 0.256445 1146.02 -3.94875)" width="3412.18" height="3395.03" rx="180.7" ry="180.7"/>
  <rect class="fil3" transform="matrix(0.282513 -0.0446962 0.0356444 0.228443 816.084 835.85)" width="3412.18" height="3395.03" rx="254.78" ry="254.78"/>
  <rect class="fil4" transform="matrix(0.164481 0.0221424 -0.0256269 0.195899 1275.33 1307.37)" width="3412.18" height="3395.03" rx="268.5" ry="268.5"/>
  <rect class="fil5" transform="matrix(0.905972 -0.0615565 0.0665294 0.979164 433.841 165.956)" width="1271.07" height="901.49" rx="56.2" ry="56.2"/>
 </g>
</svg>
