<?xml version="1.0" standalone="no"?>
<!DOCTYPE svg PUBLIC "-//W3C//DTD SVG 20010904//EN"
 "http://www.w3.org/TR/2001/REC-SVG-20010904/DTD/svg10.dtd">
<svg version="1.0" xmlns="http://www.w3.org/2000/svg"
 width="512.000000pt" height="512.000000pt" viewBox="0 0 512.000000 512.000000"
 preserveAspectRatio="xMidYMid meet">

<g transform="translate(0.000000,512.000000) scale(0.100000,-0.100000)"
fill="#FFFFFF" stroke="none">
<path d="M1797 4406 c-327 -113 -703 -462 -844 -785 l-33 -76 0 -1329 c0
-1014 3 -1338 12 -1370 16 -55 99 -138 154 -154 32 -9 344 -12 1316 -12 1424
0 1331 -5 1407 71 69 69 71 85 71 502 l0 369 61 66 c133 144 236 325 280 492
20 72 23 110 23 245 0 146 -3 168 -28 250 -50 164 -144 315 -271 433 l-65 61
0 532 c0 388 -3 543 -12 573 -16 55 -99 138 -154 154 -31 9 -261 12 -930 12
l-889 0 -98 -34z m1898 -151 l25 -24 0 -481 0 -480 -57 29 c-186 93 -446 131
-673 97 -246 -38 -444 -133 -616 -298 -145 -139 -243 -311 -280 -491 -20 -92
-19 -265 1 -363 41 -199 161 -395 330 -537 61 -51 70 -63 69 -91 -1 -38 -72
-192 -137 -296 -54 -85 -58 -116 -21 -150 23 -23 32 -24 122 -22 225 6 527 45
714 93 171 43 374 130 496 212 l52 36 0 -300 0 -300 -25 -24 -24 -25 -1271 0
-1271 0 -24 25 -25 24 0 1242 c0 1178 1 1241 18 1234 196 -83 358 -92 534 -31
136 48 144 64 100 199 -77 233 -68 415 29 597 39 74 89 127 132 139 18 5 399
10 905 10 l873 1 24 -25z m-2148 -217 c-18 -53 -21 -87 -21 -218 0 -148 13
-231 49 -322 5 -13 -3 -18 -45 -27 -69 -15 -194 -14 -255 3 -66 17 -151 55
-166 72 -25 31 117 242 260 385 72 72 185 169 196 169 2 0 -7 -28 -18 -62z
m1858 -817 c341 -85 593 -323 666 -628 18 -73 20 -108 16 -203 -11 -233 -96
-415 -287 -614 -266 -278 -585 -406 -1139 -456 -62 -6 -115 -9 -117 -7 -2 2
12 32 30 68 45 84 86 207 86 259 0 65 -22 103 -96 162 -223 178 -325 377 -325
629 0 124 20 211 76 324 120 247 365 422 670 480 107 20 311 13 420 -14z"/>
<path d="M3101 2914 c-36 -26 -54 -79 -41 -120 30 -91 156 -102 199 -17 23 45
9 101 -33 135 -27 22 -94 23 -125 2z"/>
<path d="M3109 2581 l-24 -19 0 -412 0 -412 29 -25 c35 -29 80 -26 109 8 16
19 17 55 17 430 0 396 -1 410 -20 429 -26 26 -80 26 -111 1z"/>
</g>
</svg>
