<?xml version="1.0" encoding="utf-8"?>
<!-- Generator: Adobe Illustrator 16.0.0, SVG Export Plug-In . SVG Version: 6.00 Build 0)  -->
<!DOCTYPE svg PUBLIC "-//W3C//DTD SVG 1.1//EN" "http://www.w3.org/Graphics/SVG/1.1/DTD/svg11.dtd">
<svg version="1.1" id="Camada_1" xmlns="http://www.w3.org/2000/svg" xmlns:xlink="http://www.w3.org/1999/xlink" x="0px" y="0px"
	 width="315px" height="261px" viewBox="0 0 315 261" enable-background="new 0 0 315 261" xml:space="preserve">
<g>
	<path fill-rule="evenodd" clip-rule="evenodd" fill="#1E4261" d="M158.343,16.558c6.943,5.208,13.915,10.379,20.806,15.655
		c1.303,0.997,2.569,1.365,4.167,1.327c7.396-0.175,14.794-0.273,22.192-0.369c4.193-0.055,6.117,1.313,7.378,5.298
		c2.272,7.18,4.436,14.395,6.797,21.544c0.413,1.25,1.358,2.545,2.42,3.323c5.906,4.326,11.929,8.494,17.902,12.729
		c3.739,2.649,4.516,5.048,3.051,9.368c-2.324,6.858-4.606,13.731-7.023,20.556c-0.596,1.684-0.557,3.125,0.034,4.795
		c2.415,6.825,4.699,13.697,7.02,20.557c1.419,4.192,0.621,6.667-2.972,9.213c-6.094,4.317-12.227,8.579-18.26,12.979
		c-0.954,0.694-1.775,1.889-2.144,3.02c-2.287,7.021-4.42,14.094-6.617,21.146c-1.436,4.609-3.247,5.855-8.118,5.781
		c-7.472-0.115-14.942-0.221-22.413-0.212c-1.054,0.001-2.273,0.438-3.132,1.063c-5.976,4.358-11.869,8.828-17.803,13.243
		c-3.841,2.858-6.223,2.854-10.007,0.026c-5.926-4.426-11.819-8.896-17.802-13.245c-0.909-0.661-2.219-1.084-3.345-1.085
		c-7.542-0.008-15.086,0.117-22.629,0.225c-4.25,0.062-6.3-1.334-7.57-5.366c-2.282-7.253-4.478-14.533-6.828-21.764
		c-0.347-1.064-1.159-2.171-2.067-2.83c-6.101-4.432-12.287-8.744-18.439-13.103c-3.394-2.402-4.229-4.912-2.897-8.855
		c2.386-7.065,4.865-14.101,7.148-21.199c0.405-1.257,0.389-2.869-0.017-4.129c-2.239-6.961-4.663-13.862-7.016-20.787
		c-1.481-4.36-0.725-6.701,3.025-9.359c5.975-4.232,11.992-8.407,17.897-12.736c1.063-0.779,2.016-2.07,2.43-3.32
		c2.271-6.874,4.362-13.809,6.51-20.724c1.528-4.918,3.252-6.209,8.325-6.141c7.397,0.101,14.795,0.269,22.193,0.29
		c1.048,0.002,2.278-0.421,3.121-1.052c5.92-4.433,11.753-8.983,17.636-13.466c1.136-0.866,2.373-1.599,3.563-2.394
		C156.021,16.558,157.183,16.558,158.343,16.558z M156.583,56.155c-28.745,0.009-52.176,23.419-52.194,52.148
		c-0.02,28.705,23.406,52.198,52.12,52.272c28.752,0.074,52.346-23.52,52.306-52.308C208.773,79.531,185.335,56.147,156.583,56.155z
		"/>
	<path fill-rule="evenodd" clip-rule="evenodd" fill="#1E4261" d="M123.085,239.421c-2.736-0.81-4.462-2.662-5.816-5.132
		c-2.472-4.507-5.196-8.875-7.718-13.354c-0.705-1.252-1.446-1.72-2.915-1.476c-5.286,0.876-10.598,1.603-15.892,2.432
		c-2.911,0.456-5.534,0.087-7.391-2.46c-1.78-2.443-1.503-4.979-0.249-7.588c3.321-6.908,6.581-13.846,9.837-20.71
		c0.271-0.014,0.454-0.08,0.521-0.018c4.605,4.205,10.052,5.701,16.214,5.418c5.645-0.259,11.306-0.199,16.958-0.185
		c0.863,0.003,1.865,0.324,2.563,0.829c4.169,3.014,8.24,6.163,12.409,9.176c1.112,0.805,1.22,1.479,0.65,2.684
		c-4.085,8.637-8.137,17.289-12.116,25.976c-1.094,2.387-2.969,3.631-5.314,4.408C124.245,239.421,123.666,239.421,123.085,239.421z
		"/>
	<path fill-rule="evenodd" clip-rule="evenodd" fill="#1E4261" d="M188.377,239.421c-3.077-0.779-4.771-2.89-6.041-5.707
		c-3.926-8.707-8.019-17.339-12.145-26.212c3.213-2.41,6.578-4.568,9.495-7.219c3.567-3.242,7.462-4.481,12.233-4.007
		c3.811,0.379,7.688,0.01,11.52,0.233c6.216,0.364,11.811-0.948,16.515-5.58c0.389,0.695,0.724,1.219,0.988,1.776
		c3.008,6.347,5.962,12.72,9.025,19.038c1.305,2.693,1.607,5.27-0.264,7.771c-1.893,2.533-4.538,2.813-7.433,2.358
		c-5.295-0.832-10.605-1.566-15.895-2.428c-1.374-0.224-2.085,0.229-2.747,1.405c-2.455,4.354-5.105,8.598-7.498,12.983
		c-1.412,2.587-3.177,4.618-6.014,5.586C189.538,239.421,188.957,239.421,188.377,239.421z"/>
	<path fill-rule="evenodd" clip-rule="evenodd" fill="#FFFFFF" d="M156.583,56.155c28.752-0.008,52.19,23.376,52.231,52.113
		c0.04,28.788-23.554,52.382-52.306,52.308c-28.714-0.074-52.14-23.567-52.12-52.272C104.407,79.574,127.838,56.164,156.583,56.155z
		 M156.587,69.212c-21.591,0.006-39.151,17.565-39.145,39.145c0.007,21.538,17.645,39.173,39.172,39.165
		c21.531-0.01,39.151-17.65,39.146-39.193C195.753,86.749,178.187,69.207,156.587,69.212z"/>
	<path fill-rule="evenodd" clip-rule="evenodd" fill="#1E4261" d="M156.587,69.212c21.6-0.005,39.166,17.537,39.173,39.116
		c0.006,21.543-17.614,39.184-39.146,39.193c-21.527,0.008-39.165-17.627-39.172-39.165
		C117.436,86.777,134.996,69.218,156.587,69.212z M150.001,112.13c-2.632-2.647-5.161-5.219-7.721-7.761
		c-3.125-3.101-7.103-3.355-9.834-0.663c-2.772,2.732-2.568,6.682,0.548,9.822c3.933,3.962,7.881,7.906,11.84,11.841
		c3.421,3.4,7.043,3.435,10.445,0.046c8.32-8.287,16.621-16.594,24.911-24.911c3.135-3.144,3.343-7.081,0.586-9.829
		c-2.72-2.71-6.729-2.474-9.833,0.621c-6.366,6.347-12.713,12.71-19.072,19.063C151.319,110.911,150.738,111.435,150.001,112.13z"/>
	<path fill-rule="evenodd" clip-rule="evenodd" fill="#FFFFFF" d="M150.001,112.13c0.737-0.695,1.318-1.219,1.87-1.771
		c6.359-6.354,12.706-12.717,19.072-19.063c3.104-3.095,7.113-3.331,9.833-0.621c2.757,2.748,2.549,6.686-0.586,9.829
		c-8.29,8.317-16.591,16.624-24.911,24.911c-3.402,3.389-7.024,3.354-10.445-0.046c-3.959-3.935-7.907-7.879-11.84-11.841
		c-3.116-3.141-3.32-7.09-0.548-9.822c2.731-2.692,6.709-2.438,9.834,0.663C144.84,106.911,147.369,109.482,150.001,112.13z"/>
</g>
</svg>
