<?xml version="1.0" encoding="utf-8"?>
<!-- Generator: Adobe Illustrator 16.0.0, SVG Export Plug-In . SVG Version: 6.00 Build 0)  -->
<!DOCTYPE svg PUBLIC "-//W3C//DTD SVG 1.1//EN" "http://www.w3.org/Graphics/SVG/1.1/DTD/svg11.dtd">
<svg version="1.1" id="Camada_1" xmlns="http://www.w3.org/2000/svg" xmlns:xlink="http://www.w3.org/1999/xlink" x="0px" y="0px"
	 width="42.044px" height="34px" viewBox="0 0 42.044 34" enable-background="new 0 0 42.044 34" xml:space="preserve">
<g>
	<g>
		<path fill-rule="evenodd" clip-rule="evenodd" fill="#1E4261" d="M-101.598,21.121c-4.417,0-8.834,0-13.251-0.001
			c-2.352,0-3.913-1.559-3.913-3.907c0-5.566,0-11.132,0-16.699c0-2.352,1.558-3.911,3.909-3.911c8.834-0.001,17.669-0.001,26.503,0
			c2.356,0,3.912,1.553,3.912,3.906c0.001,5.566,0.001,11.133,0,16.699c0,2.355-1.557,3.912-3.908,3.912
			C-92.764,21.121-97.181,21.121-101.598,21.121z M-101.581-0.945c-4.431,0-8.861,0-13.292,0c-0.963,0-1.438,0.471-1.438,1.427
			c0,5.58,0,11.16,0,16.739c0,0.985,0.465,1.447,1.457,1.447c8.835,0,17.671,0,26.507,0c0.992,0,1.457-0.461,1.457-1.447
			c0-5.567,0-11.134,0-16.701c0-1.012-0.458-1.466-1.476-1.466C-92.771-0.945-97.176-0.945-101.581-0.945z"/>
		<path fill-rule="evenodd" clip-rule="evenodd" fill="#1E4261" d="M-109.144,26.024c0.144,0,0.296,0,0.449,0
			c7.582,0,15.164,0,22.745,0.001c0.178,0,0.361-0.008,0.534,0.027c0.601,0.121,1.018,0.682,0.975,1.285
			c-0.042,0.603-0.536,1.092-1.149,1.134c-0.14,0.011-0.28,0.004-0.421,0.004c-7.582,0.001-15.164,0.002-22.745-0.006
			c-0.307,0-0.452,0.087-0.595,0.373c-0.678,1.349-1.793,2.085-3.308,2.073c-1.514-0.012-2.615-0.764-3.28-2.12
			c-0.119-0.243-0.24-0.343-0.509-0.325c-0.356,0.023-0.715,0.012-1.072,0.004c-0.712-0.018-1.248-0.555-1.241-1.237
			c0.007-0.67,0.532-1.192,1.228-1.211c0.344-0.009,0.69-0.021,1.033,0.004c0.291,0.021,0.441-0.066,0.573-0.348
			c0.934-1.995,3.35-2.71,5.217-1.562C-110.119,24.484-109.824,24.842-109.144,26.024z M-112.623,26.025
			c-0.667-0.006-1.225,0.539-1.235,1.204c-0.01,0.664,0.533,1.23,1.195,1.245c0.68,0.016,1.254-0.544,1.254-1.224
			C-111.409,26.585-111.958,26.031-112.623,26.025z"/>
		<path fill-rule="evenodd" clip-rule="evenodd" fill="#1E4261" d="M-106.503,8.823c0-1.187,0.004-2.374-0.001-3.561
			c-0.004-1.003,0.394-1.792,1.274-2.282c0.868-0.484,1.737-0.402,2.575,0.118c1.94,1.202,3.888,2.394,5.822,3.605
			c1.733,1.085,1.732,3.234-0.004,4.323c-1.944,1.22-3.9,2.422-5.854,3.627c-0.827,0.51-1.69,0.567-2.542,0.092
			c-0.851-0.474-1.264-1.234-1.269-2.207C-106.507,11.299-106.503,10.061-106.503,8.823z M-104.038,12.601
			c2.037-1.261,4.014-2.485,6.041-3.739c-2.042-1.264-4.021-2.487-6.041-3.737C-104.038,7.637-104.038,10.083-104.038,12.601z"/>
	</g>
</g>
<g>
	<g>
		<path fill-rule="evenodd" clip-rule="evenodd" fill="#1E4261" d="M38.519,0.086c-9.449-0.001-18.896-0.001-28.345,0
			c-1.498,0-2.513,0.897-2.515,2.386C7.658,4.559,7.544,6.644,7.544,8.73c0,0.157,0,0.312,0,0.489c-1,0-2.792-0.005-4.209,0.002
			c-1.401,0.005-2.248,0.903-2.248,2.299C1.084,18.27,1.113,25.018,1.116,31.766c0,1.409,0.932,2.322,2.353,2.324
			c9.489,0.003,18.986,0.002,28.475,0c1.437-0.001,2.346-0.92,2.347-2.36c0.002-6.721,0.003-13.442,0.002-20.164
			c0-0.203-0.003-0.412-0.045-0.609c-0.235-1.088-1.094-1.846-2.299-1.846C25.186,9.108,18.425,9,11.662,9c-0.174,0-2.117,0-2.117,0
			c0-1,0-3,0-5c11,0,19,0,28,0c0,7,0,14,0,21c0,0,0.604,0,0.887,0c1.534,0,2.449-0.896,2.449-2.431
			c0.001-6.681,0.023-13.373,0.021-20.053C40.902,0.989,40.038,0.086,38.519,0.086z M29.544,12c0,4,0,8.095,0,11.938
			c0-0.154,0.442-0.254,0.34-0.352c-1.439-1.396-2.521-2.793-3.963-4.187c-0.709-0.687-1.233-0.614-1.805,0.2
			c-1.307,1.861-2.522,3.727-3.826,5.592c-0.645,0.921-1.351,0.965-2.085,0.112c-0.96-1.114-1.892-2.236-2.852-3.351
			c-0.673-0.782-1.294-0.803-2.026-0.072c-2.834,2.834-5.627,5.668-8.461,8.501c-0.104,0.103-0.322,0.199-0.322,0.347
			c0-6.1,0-12.729,0-18.729C13.544,12,22.544,12,29.544,12z"/>
		<path fill-rule="evenodd" clip-rule="evenodd" fill="#1E4261" d="M17.73,20.118c1.666-0.003,2.955-1.289,2.961-2.955
			c0.006-1.682-1.295-2.977-2.984-2.97c-1.688,0.006-2.978,1.31-2.961,2.993C14.762,18.849,16.057,20.122,17.73,20.118z"/>
	</g>
</g>
<g>
	<g>
		<path fill-rule="evenodd" clip-rule="evenodd" fill="#1E4261" d="M-16.393-40.225c-0.931-2.918-0.919-5.868,0.387-8.632
			c3.043-6.444,8.257-8.59,15.111-7.311c0-2.44,0.002-4.927,0-7.413C-0.9-66.755-3.217-69.077-6.4-69.083
			c-3.674-0.007-7.129-0.002-10.804,0c-0.146,0-0.252,0.015-0.252,0.025c0,0.209,0,0.375,0,0.541c0,1.83-0.188,3.662-0.24,5.49
			c-0.075,2.659-2.267,5.007-4.894,5.45c-0.492,0.083-1.029,0.098-1.53,0.102c-1.744,0.012-3.335,0.004-5.335,0.004
			c0,0.193,0,0.33,0,0.467c0,6.05-0.027,12.1-0.023,18.149c0,0.334-0.012,0.675,0.046,1.002c0.473,2.714,2.621,4.521,5.404,4.527
			c4.177,0.008,8.352,0.002,12.529,0.001c0.132,0,0.263-0.013,0.505-0.025C-13.642-35.064-15.463-37.311-16.393-40.225z"/>
		<path fill-rule="evenodd" clip-rule="evenodd" fill="#1E4261" d="M-4.44-54.788c-5.902-0.034-10.761,4.804-10.77,10.726
			c-0.009,5.909,4.776,10.709,10.704,10.737C1.428-33.298,6.24-38.09,6.25-44.038C6.261-49.957,1.491-54.753-4.44-54.788z
			 M-4.458-49.42c0.974,0.013,1.781,0.83,1.777,1.798c-0.005,0.975-0.813,1.78-1.788,1.783c-0.98,0.002-1.785-0.794-1.792-1.773
			C-6.268-48.606-5.443-49.433-4.458-49.42z M-2.729-40.149c-0.149,0.92-0.949,1.513-1.899,1.449
			c-0.869-0.058-1.592-0.784-1.625-1.673c-0.025-0.654-0.022-1.312-0.002-1.966c0.03-0.92,0.756-1.643,1.687-1.711
			c0.879-0.063,1.703,0.581,1.843,1.482c0.062,0.396,0.047,0.805,0.068,1.225C-2.679-40.954-2.665-40.545-2.729-40.149z"/>
		<path fill-rule="evenodd" clip-rule="evenodd" fill="#1E4261" d="M-23.375-59.296c1.897-0.109,3.45-1.544,3.602-3.438
			c0.161-1.996,0.036-4.014,0.036-5.858c-3.066,3.064-6.223,6.221-9.324,9.322C-27.249-59.271-25.306-59.185-23.375-59.296z"/>
	</g>
</g>
<g>
	<g>
		<path fill-rule="evenodd" clip-rule="evenodd" fill="#1E4261" d="M-56.12,23.797c0-8.604-0.004-17.022,0.009-25.627
			c0-0.624-0.165-1.17-0.75-1.17c-6.238,0-12.477,0-18.715,0c-0.583,0-0.751,0.563-0.75,1.189
			c0.014,8.593,0.009,17.063,0.009,25.657c0,0.923,0.354,1.153,1.281,1.153c5.889,0,11.778,0,17.668,0
			C-56.487,25-56.12,24.672-56.12,23.797z M-72.159,1.784c1.938-0.002,3.876-0.001,5.814,0c0.679,0,1.138,0.414,1.135,1.014
			s-0.461,1.003-1.145,1.005c-0.963,0.002-1.927,0-2.89,0c-0.975,0-1.949,0.002-2.924,0c-0.655-0.002-1.11-0.412-1.118-0.998
			C-73.293,2.206-72.832,1.785-72.159,1.784z M-73.176,6.388c0.203-0.4,0.547-0.566,0.99-0.566c2.107,0.003,4.215,0.001,6.322,0.001
			c1.883,0,3.767-0.004,5.649,0.002c0.797,0.003,1.294,0.752,0.96,1.438c-0.203,0.418-0.559,0.583-1.014,0.582
			c-1.984-0.004-3.968-0.001-5.952-0.001c-1.995,0-3.991,0.003-5.986-0.002C-73.024,7.839-73.527,7.081-73.176,6.388z
			 M-73.199,10.472c0.197-0.433,0.557-0.613,1.03-0.612c1.995,0.005,3.99,0.002,5.985,0.002c1.984,0,3.968-0.003,5.953,0.001
			c0.818,0.002,1.319,0.757,0.97,1.452c-0.202,0.402-0.547,0.567-0.989,0.567c-1.838-0.002-3.677-0.001-5.515-0.001
			c-2.141,0-4.282,0.002-6.423-0.001C-72.997,11.879-73.513,11.161-73.199,10.472z M-60.24,19.96
			c-0.639,0.004-1.277,0.001-1.915,0.001c-0.649,0-1.299,0.002-1.948-0.001c-0.649-0.004-1.104-0.423-1.104-1.01
			s0.457-1.007,1.106-1.008c1.288-0.002,2.575-0.003,3.863,0c0.629,0.001,1.078,0.416,1.087,0.992
			C-59.142,19.523-59.597,19.955-60.24,19.96z M-60.217,15.919c-2.006,0.006-4.013,0.002-6.02,0.002
			c-1.995,0-3.991,0.004-5.986-0.002c-0.781-0.002-1.284-0.731-0.977-1.408c0.184-0.405,0.516-0.608,0.963-0.609
			c0.964-0.002,1.928-0.001,2.892-0.001c3.016,0,6.031,0.002,9.046-0.002c0.452-0.001,0.815,0.141,1.031,0.554
			C-58.908,15.144-59.404,15.917-60.217,15.919z"/>
		<path fill-rule="evenodd" clip-rule="evenodd" fill="#1E4261" d="M-50.456,26.819c0-7.615,0-15.231,0-22.847
			c0-0.789-0.192-1.178-0.979-1.179c-0.852-0.001-1.783-0.001-2.636,0c-0.097,0-0.386,0.012-0.386,0.02c0,0.159,0,0.292,0,0.425
			c0,6.853,0,13.706,0,20.559c0,2.04-0.897,3.202-2.928,3.202c-4.15,0-8.3,0-12.45,0c-0.131,0-0.263,0-0.424,0
			c0,1,0.026,1.782-0.009,2.664c-0.025,0.627,0.167,1.165,0.75,1.336c6.238,0,12.477,0,18.715,0
			c0.582-0.171,0.574-0.661,0.552-1.288C-50.284,28.726-50.456,27.807-50.456,26.819z"/>
	</g>
</g>
<rect x="261.544" y="-192" fill-rule="evenodd" clip-rule="evenodd" width="41" height="33"/>
</svg>
