<?xml version="1.0" encoding="utf-8"?>
<!-- Generator: Adobe Illustrator 16.0.0, SVG Export Plug-In . SVG Version: 6.00 Build 0)  -->
<!DOCTYPE svg PUBLIC "-//W3C//DTD SVG 1.1//EN" "http://www.w3.org/Graphics/SVG/1.1/DTD/svg11.dtd">
<svg version="1.1" id="Camada_1" xmlns="http://www.w3.org/2000/svg" xmlns:xlink="http://www.w3.org/1999/xlink" x="0px" y="0px"
	 width="315px" height="261px" viewBox="0 0 315 261" enable-background="new 0 0 315 261" xml:space="preserve">
<g>
	<path fill-rule="evenodd" clip-rule="evenodd" fill="#1E4261" d="M204.956,228.703c-37.51,0-75.019,0-112.526,0
		c-0.167-0.084-0.324-0.205-0.5-0.246c-9.996-2.311-15.252-8.873-15.253-19.067c-0.002-19.747-0.001-39.496-0.001-59.243
		c0.001-21.748-0.021-43.495,0.013-65.243c0.012-8.013,4.867-14.839,12.295-17.245c1.942-0.63,4.034-0.8,5.696-1.112
		c0,6.024-0.008,11.639,0.002,17.253c0.02,11.108,7.756,18.865,18.861,18.871c23.435,0.013,46.869,0.013,70.305,0
		c11.111-0.006,18.833-7.751,18.855-18.874c0.012-5.66,0.002-11.32,0.002-17.042c0.408,0,1.155-0.078,1.881,0.013
		c9.314,1.159,16.049,8.591,16.103,17.951c0.072,12.562,0.021,25.122,0.021,37.684c0,29.185,0.007,58.368-0.005,87.553
		c-0.003,8.45-4.731,15.249-12.344,17.802C207.245,228.13,206.092,228.391,204.956,228.703z M166.782,120.678
		c-7.749,0-15.499-0.004-23.25,0.003c-4.133,0.004-6.863,2.427-6.835,6.045c0.024,3.528,2.756,5.951,6.752,5.953
		c15.5,0.006,31.001,0.006,46.501,0c3.996-0.002,6.722-2.426,6.746-5.958c0.024-3.604-2.728-6.037-6.851-6.041
		C182.157,120.674,174.47,120.678,166.782,120.678z M166.696,156.688c-7.749,0-15.5-0.007-23.251,0.001
		c-4.012,0.004-6.719,2.4-6.748,5.945c-0.03,3.541,2.702,6.05,6.651,6.051c15.563,0.01,31.125,0.01,46.687,0
		c3.956-0.001,6.686-2.498,6.661-6.042c-0.024-3.53-2.754-5.95-6.75-5.954C182.196,156.681,174.446,156.688,166.696,156.688z
		 M166.667,204.698c7.813,0,15.626,0.01,23.438-0.005c3.847-0.007,6.55-2.458,6.592-5.924c0.042-3.543-2.693-6.069-6.631-6.071
		c-15.563-0.009-31.126-0.008-46.688-0.001c-3.979,0.003-6.688,2.459-6.68,6.014c0.008,3.533,2.739,5.979,6.72,5.983
		C151.168,204.704,158.918,204.698,166.667,204.698z M112.696,138.679c1.999,0,3.999,0.045,5.996-0.01
		c3.386-0.094,5.915-2.579,5.974-5.958c0.069-3.996,0.063-7.994,0.004-11.992c-0.053-3.478-2.598-5.983-6.093-6.027
		c-3.936-0.051-7.871-0.052-11.806,0c-3.476,0.046-6.027,2.583-6.075,6.05c-0.055,3.934-0.05,7.87-0.002,11.805
		c0.043,3.574,2.587,6.064,6.192,6.129C108.822,138.709,110.76,138.682,112.696,138.679z M124.684,162.694
		c0-1.999,0.043-3.999-0.01-5.996c-0.09-3.389-2.575-5.938-5.939-5.993c-4.059-0.068-8.12-0.073-12.179,0.004
		c-3.259,0.063-5.794,2.616-5.853,5.882c-0.071,4.059-0.07,8.121,0,12.18c0.057,3.274,2.572,5.826,5.838,5.893
		c4.059,0.084,8.12,0.075,12.179,0.007c3.377-0.057,5.86-2.594,5.953-5.979C124.728,166.693,124.683,164.693,124.684,162.694z
		 M112.706,186.695c-1.938,0-3.873-0.026-5.809,0.005c-3.602,0.059-6.159,2.551-6.203,6.119c-0.048,3.935-0.053,7.871,0.002,11.805
		c0.047,3.473,2.584,6.01,6.065,6.06c3.934,0.055,7.87,0.053,11.805,0.001c3.505-0.045,6.049-2.544,6.104-6.019
		c0.062-3.997,0.064-7.996-0.003-11.992c-0.058-3.384-2.586-5.877-5.966-5.968C116.705,186.652,114.705,186.696,112.706,186.695z"/>
	<path fill-rule="evenodd" clip-rule="evenodd" fill="#1E4261" d="M151.317,36.659c3.178,0.911,6.286,1.944,8.858,4.171
		c4.108,3.558,6.038,7.478,6.606,13.833c1.634,0,3.296-0.002,4.959,0.001c11.27,0.018,18.938,7.674,18.96,18.934
		c0.006,3.562,0.022,7.123-0.006,10.684c-0.03,3.865-2.482,6.378-6.313,6.381c-23.804,0.018-47.606,0.018-71.409,0
		c-3.729-0.004-6.292-2.522-6.269-6.224c0.03-4.99-0.234-10.035,0.4-14.957c1.064-8.269,8.526-14.526,16.886-14.788
		c2.173-0.068,4.352-0.01,6.486-0.01c0.388-1.868,0.563-3.623,1.121-5.246c2.267-6.588,6.844-10.716,13.617-12.396
		c0.415-0.103,0.818-0.255,1.228-0.383C148.068,36.659,149.693,36.659,151.317,36.659z"/>
	<path fill-rule="evenodd" clip-rule="evenodd" fill="#FFFFFF" d="M166.782,120.678c7.688,0,15.375-0.004,23.063,0.002
		c4.123,0.004,6.875,2.438,6.851,6.041c-0.024,3.532-2.75,5.956-6.746,5.958c-15.5,0.006-31.001,0.006-46.501,0
		c-3.996-0.002-6.728-2.425-6.752-5.953c-0.028-3.618,2.702-6.041,6.835-6.045C151.283,120.674,159.033,120.678,166.782,120.678z"/>
	<path fill-rule="evenodd" clip-rule="evenodd" fill="#FFFFFF" d="M166.696,156.688c7.75,0,15.5-0.007,23.25,0.001
		c3.996,0.004,6.726,2.424,6.75,5.954c0.024,3.544-2.705,6.041-6.661,6.042c-15.562,0.01-31.124,0.01-46.687,0
		c-3.949-0.001-6.682-2.51-6.651-6.051c0.029-3.545,2.736-5.941,6.748-5.945C151.196,156.681,158.947,156.688,166.696,156.688z"/>
	<path fill-rule="evenodd" clip-rule="evenodd" fill="#FFFFFF" d="M166.667,204.698c-7.749,0-15.499,0.006-23.25-0.004
		c-3.98-0.005-6.712-2.45-6.72-5.983c-0.009-3.555,2.7-6.011,6.68-6.014c15.563-0.007,31.125-0.008,46.688,0.001
		c3.938,0.002,6.673,2.528,6.631,6.071c-0.042,3.466-2.745,5.917-6.592,5.924C182.293,204.708,174.48,204.698,166.667,204.698z"/>
	<path fill-rule="evenodd" clip-rule="evenodd" fill="#FFFFFF" d="M112.696,138.68c-1.937,0.002-3.874,0.029-5.81-0.005
		c-3.605-0.064-6.149-2.555-6.192-6.129c-0.048-3.935-0.053-7.871,0.002-11.805c0.048-3.467,2.6-6.004,6.075-6.05
		c3.935-0.052,7.87-0.051,11.806,0c3.495,0.044,6.04,2.55,6.093,6.027c0.06,3.998,0.065,7.996-0.004,11.992
		c-0.059,3.379-2.588,5.864-5.974,5.958C116.695,138.724,114.695,138.679,112.696,138.68z"/>
	<path fill-rule="evenodd" clip-rule="evenodd" fill="#FFFFFF" d="M124.684,162.694c-0.001,1.999,0.044,3.999-0.011,5.996
		c-0.093,3.386-2.576,5.923-5.953,5.979c-4.059,0.068-8.12,0.077-12.179-0.007c-3.266-0.066-5.781-2.618-5.838-5.893
		c-0.07-4.059-0.071-8.121,0-12.18c0.059-3.266,2.594-5.819,5.853-5.882c4.059-0.077,8.12-0.072,12.179-0.004
		c3.364,0.056,5.85,2.604,5.939,5.993C124.727,158.695,124.684,160.695,124.684,162.694z"/>
	<path fill-rule="evenodd" clip-rule="evenodd" fill="#FFFFFF" d="M112.706,186.695c1.999,0.001,3.999-0.043,5.995,0.011
		c3.38,0.091,5.908,2.584,5.966,5.968c0.067,3.996,0.064,7.995,0.003,11.992c-0.055,3.475-2.599,5.974-6.104,6.019
		c-3.935,0.052-7.871,0.054-11.805-0.001c-3.481-0.05-6.019-2.587-6.065-6.06c-0.055-3.934-0.05-7.87-0.002-11.805
		c0.044-3.568,2.602-6.061,6.203-6.119C108.833,186.669,110.769,186.695,112.706,186.695z"/>
</g>
</svg>
