<?xml version="1.0" encoding="utf-8"?>
<!-- Generator: Adobe Illustrator 16.0.0, SVG Export Plug-In . SVG Version: 6.00 Build 0)  -->
<!DOCTYPE svg PUBLIC "-//W3C//DTD SVG 1.1//EN" "http://www.w3.org/Graphics/SVG/1.1/DTD/svg11.dtd">
<svg version="1.1" id="Camada_1" xmlns="http://www.w3.org/2000/svg" xmlns:xlink="http://www.w3.org/1999/xlink" x="0px" y="0px"
	 width="315px" height="261px" viewBox="0 0 315 261" enable-background="new 0 0 315 261" xml:space="preserve">
<g>
	<path fill-rule="evenodd" clip-rule="evenodd" fill="#1E4261" d="M232.45,189.239c2.019,1.885,4.003,3.568,5.791,5.439
		c4.941,5.169,6.31,11.258,3.623,17.861c-2.695,6.627-8.004,10.167-15.114,10.176c-25.917,0.03-51.885,0.832-77.741-0.472
		c-43.51-2.194-81.4-33.168-90.273-75.567c-6.304-30.114,0.998-57.184,21.329-80.127c22.461-25.348,51.356-36.497,84.892-33.675
		c35.558,2.993,62.962,20.157,80.373,51.634c18.191,32.892,13.374,74.259-11.209,102.783
		C233.686,187.797,233.252,188.305,232.45,189.239z M163.567,156.089c0-1.031,0-1.833,0-2.634c0-13.218,0.013-26.436-0.008-39.653
		c-0.007-4.212-2.693-7.318-6.569-7.597c-1.551-0.111-3.129-0.136-4.674,0.016c-2.995,0.296-5.117,1.884-6.136,4.753
		c-0.991,2.796-0.399,5.373,1.754,7.328c1.143,1.037,1.4,2.06,1.395,3.465c-0.04,10.619-0.021,21.237-0.021,31.856
		c0,0.783,0,1.567,0,2.464c-1.498,0-2.684-0.052-3.861,0.01c-3.874,0.201-6.837,3.315-6.827,7.126
		c0.009,3.701,2.909,6.99,6.647,7.059c7.423,0.136,14.852,0.128,22.274,0.005c3.754-0.061,6.671-3.294,6.713-6.996
		c0.043-3.791-2.931-6.972-6.77-7.19C166.302,156.032,165.111,156.089,163.567,156.089z M167.115,84.796
		c0.009-5.917-4.823-10.722-10.771-10.709c-5.792,0.012-10.607,4.854-10.593,10.651c0.015,5.939,4.854,10.756,10.768,10.714
		C162.341,95.411,167.105,90.62,167.115,84.796z"/>
	<path fill-rule="evenodd" clip-rule="evenodd" fill="#FFFFFF" d="M163.567,156.089c1.544,0,2.734-0.057,3.917,0.011
		c3.839,0.219,6.813,3.399,6.77,7.19c-0.042,3.702-2.959,6.936-6.713,6.996c-7.423,0.123-14.852,0.131-22.274-0.005
		c-3.738-0.068-6.639-3.357-6.647-7.059c-0.01-3.811,2.953-6.925,6.827-7.126c1.178-0.062,2.363-0.01,3.861-0.01
		c0-0.896,0-1.681,0-2.464c0-10.619-0.019-21.237,0.021-31.856c0.006-1.405-0.252-2.428-1.395-3.465
		c-2.153-1.955-2.745-4.532-1.754-7.328c1.019-2.869,3.141-4.457,6.136-4.753c1.545-0.151,3.123-0.127,4.674-0.016
		c3.876,0.278,6.563,3.385,6.569,7.597c0.021,13.218,0.008,26.436,0.008,39.653C163.567,154.256,163.567,155.058,163.567,156.089z"
		/>
	<path fill-rule="evenodd" clip-rule="evenodd" fill="#FFFFFF" d="M167.115,84.796c-0.01,5.824-4.774,10.615-10.597,10.656
		c-5.913,0.042-10.753-4.774-10.768-10.714c-0.015-5.798,4.801-10.64,10.593-10.651C162.292,74.074,167.124,78.879,167.115,84.796z"
		/>
</g>
</svg>
