<?xml version="1.0" encoding="utf-8"?>
<!-- Generator: Adobe Illustrator 16.0.0, SVG Export Plug-In . SVG Version: 6.00 Build 0)  -->
<!DOCTYPE svg PUBLIC "-//W3C//DTD SVG 1.1//EN" "http://www.w3.org/Graphics/SVG/1.1/DTD/svg11.dtd">
<svg version="1.1" id="Camada_1" xmlns="http://www.w3.org/2000/svg" xmlns:xlink="http://www.w3.org/1999/xlink" x="0px" y="0px"
	 width="205.444px" height="247.975px" viewBox="0 0 205.444 247.975" enable-background="new 0 0 205.444 247.975"
	 xml:space="preserve">
<g>
	<path fill="#FFFFFF" d="M96.877,86.041C87.242,74.979,32.602,49.848,0,34.295v62.269l98.652,72.735L96.877,86.041z"/>
	<path fill="#FFFFFF" d="M6.037,119.414v70.648c14.783-12.701,33.702-27.785,45.025-37.448L6.037,119.414z"/>
	<path fill="#FFFFFF" d="M113.771,185.193c22.16,5.818,56.39,15.529,91.673,25.006V63.072
		c-33.239,35.494-80.286,86.853-92.166,98.953L113.771,185.193z"/>
	<path fill="#FFFFFF" d="M111.481,77.787l1.349,63.295c21.431-22.822,50.988-55.363,78.568-84.553V30.79l-78.388,45.603
		C112.56,76.943,112.039,77.402,111.481,77.787z"/>
	<polygon fill="#FFFFFF" points="110.697,61.477 177.566,22.57 177.566,0 109.633,0 	"/>
	<path fill="#FFFFFF" d="M114.115,201.271l0.992,46.703h66.484l9.807-26.252C186.33,220.297,130.082,205.143,114.115,201.271z"/>
	<path fill="#FFFFFF" d="M99.041,187.705L63.559,161.54c-16.71,14.136-30.517,25.343-48.461,40.792l9.514,45.643h75.717
		L99.041,187.705z"/>
	<path fill="#FFFFFF" d="M96.484,67.663l-1.12-49.542H0C25.582,30.766,73.028,52.68,96.484,67.663z"/>
</g>
</svg>
