<?xml version="1.0" encoding="utf-8"?>
<!-- Generator: Adobe Illustrator 16.0.0, SVG Export Plug-In . SVG Version: 6.00 Build 0)  -->
<!DOCTYPE svg PUBLIC "-//W3C//DTD SVG 1.1//EN" "http://www.w3.org/Graphics/SVG/1.1/DTD/svg11.dtd">
<svg version="1.1" id="Camada_1" xmlns="http://www.w3.org/2000/svg" xmlns:xlink="http://www.w3.org/1999/xlink" x="0px" y="0px"
	 width="315px" height="261px" viewBox="0 0 315 261" enable-background="new 0 0 315 261" xml:space="preserve">
<path fill-rule="evenodd" clip-rule="evenodd" fill="#FFFFFF" d="M70.701,187.344c0-42.893,0-85.785,0-128.678
	c2.17-7.538,7.338-9.301,13.604-9.281c40.234,0.127,80.471,0.064,120.707,0.067c0.863,0,1.732-0.023,2.589,0.068
	c4.485,0.485,7.687,2.823,9.251,7.028c0.62,1.666,0.777,3.585,0.779,5.39c0.043,35.429,0.031,70.857,0.035,106.287
	c0,0.7-0.021,1.411,0.078,2.101c0.226,1.563,1.37,2.53,2.877,2.518c1.508-0.015,2.63-1.016,2.815-2.575
	c0.076-0.641,0.059-1.294,0.059-1.941c0.003-21.495,0.003-42.99,0.003-64.485c0-0.681,0-1.362,0-2.002
	c5.69-0.938,10.833,2.149,12.572,7.36c0.185,0.554,0.389,1.101,0.584,1.65c0,25.497,0,50.995,0,76.493
	c-0.1,0.299-0.246,0.59-0.291,0.896c-0.596,3.971-2.047,7.604-4.447,10.812c-5.272,7.045-12.414,10.217-21.143,10.203
	c-22.837-0.036-45.674-0.012-68.512-0.012c-15.279,0-30.559,0.027-45.837-0.01c-12.297-0.029-21.918-7.188-24.917-18.455
	C71.206,189.643,70.969,188.489,70.701,187.344z M144.115,65.797c-15.449,0-30.898-0.003-46.35,0.002
	c-5.639,0.002-8.963,3.312-8.973,8.944c-0.012,7.4-0.01,14.802,0,22.202c0.008,5.747,3.303,9.041,9.041,9.042
	c30.898,0.003,61.799,0.003,92.697,0c5.713-0.001,9.096-3.348,9.106-9.028c0.014-7.347,0.011-14.693,0.001-22.04
	c-0.009-5.805-3.348-9.12-9.174-9.121C175.015,65.795,159.564,65.797,144.115,65.797z M144.271,143.587
	c-17.333,0-34.666-0.003-52,0.004c-2.213,0.001-3.484,1.11-3.461,2.953c0.021,1.776,1.271,2.872,3.381,2.872
	c34.668,0.007,69.334,0.007,104.001,0c2.071,0,3.392-1.145,3.42-2.873s-1.306-2.909-3.341-2.954
	c-0.432-0.009-0.863-0.002-1.295-0.002C178.074,143.587,161.174,143.587,144.271,143.587z M144.287,123.35
	c-17.063,0-34.124,0-51.186,0.003c-0.594,0-1.192-0.019-1.778,0.057c-1.483,0.19-2.456,1.262-2.511,2.7
	c-0.061,1.539,0.848,2.688,2.4,2.96c0.58,0.102,1.182,0.11,1.773,0.11c34.123,0.005,68.247,0.005,102.37,0.003
	c2.784,0,4.212-0.975,4.259-2.879c0.048-1.961-1.396-2.953-4.306-2.953C178.303,123.35,161.295,123.35,144.287,123.35z
	 M144.199,163.866c-17.008,0-34.016-0.001-51.023,0.001c-0.593,0-1.191-0.021-1.779,0.046c-1.564,0.18-2.568,1.288-2.588,2.8
	c-0.021,1.524,0.918,2.637,2.49,2.89c0.529,0.085,1.074,0.093,1.613,0.093c34.177,0.005,68.354,0.005,102.531,0.003
	c2.737,0,4.195-1.049,4.174-2.966c-0.021-1.912-1.426-2.866-4.232-2.866C178.322,163.865,161.261,163.866,144.199,163.866z"/>
</svg>
