<?xml version="1.0" encoding="utf-8"?>
<!-- Generator: Adobe Illustrator 16.0.0, SVG Export Plug-In . SVG Version: 6.00 Build 0)  -->
<!DOCTYPE svg PUBLIC "-//W3C//DTD SVG 1.1//EN" "http://www.w3.org/Graphics/SVG/1.1/DTD/svg11.dtd">
<svg version="1.1" id="Camada_1" xmlns="http://www.w3.org/2000/svg" xmlns:xlink="http://www.w3.org/1999/xlink" x="0px" y="0px"
	 width="26.002px" height="34px" viewBox="0 0 26.002 34" enable-background="new 0 0 26.002 34" xml:space="preserve">
<g>
	<g>
		<path fill-rule="evenodd" clip-rule="evenodd" fill="#1E4261" d="M-110.272,21.121c-4.417,0-8.834,0-13.251-0.001
			c-2.352,0-3.913-1.559-3.913-3.907c0-5.566,0-11.132,0-16.699c0-2.352,1.558-3.911,3.909-3.911c8.834-0.001,17.669-0.001,26.503,0
			c2.356,0,3.912,1.553,3.912,3.906c0.001,5.566,0.001,11.133,0,16.699c0,2.355-1.557,3.912-3.908,3.912
			C-101.438,21.121-105.854,21.121-110.272,21.121z M-110.255-0.945c-4.431,0-8.861,0-13.292,0c-0.963,0-1.438,0.471-1.438,1.427
			c0,5.58,0,11.16,0,16.739c0,0.985,0.465,1.447,1.457,1.447c8.835,0,17.671,0,26.507,0c0.992,0,1.457-0.461,1.457-1.447
			c0-5.567,0-11.134,0-16.701c0-1.012-0.458-1.466-1.476-1.466C-101.445-0.945-105.85-0.945-110.255-0.945z"/>
		<path fill-rule="evenodd" clip-rule="evenodd" fill="#1E4261" d="M-117.818,26.024c0.144,0,0.296,0,0.449,0
			c7.582,0,15.164,0,22.745,0.001c0.178,0,0.361-0.008,0.534,0.027c0.601,0.121,1.018,0.682,0.975,1.285
			c-0.042,0.603-0.536,1.092-1.149,1.134c-0.14,0.011-0.28,0.004-0.421,0.004c-7.582,0.001-15.164,0.002-22.745-0.006
			c-0.307,0-0.452,0.087-0.595,0.373c-0.678,1.349-1.793,2.085-3.308,2.073c-1.514-0.012-2.615-0.764-3.28-2.12
			c-0.119-0.243-0.24-0.343-0.509-0.325c-0.356,0.023-0.715,0.012-1.072,0.004c-0.712-0.018-1.248-0.555-1.241-1.237
			c0.007-0.67,0.532-1.192,1.228-1.211c0.344-0.009,0.69-0.021,1.033,0.004c0.291,0.021,0.441-0.066,0.573-0.348
			c0.934-1.995,3.35-2.71,5.217-1.562C-118.793,24.484-118.498,24.842-117.818,26.024z M-121.297,26.025
			c-0.667-0.006-1.225,0.539-1.235,1.204c-0.01,0.664,0.533,1.23,1.195,1.245c0.68,0.016,1.254-0.544,1.254-1.224
			C-120.083,26.585-120.632,26.031-121.297,26.025z"/>
		<path fill-rule="evenodd" clip-rule="evenodd" fill="#1E4261" d="M-115.177,8.823c0-1.187,0.004-2.374-0.001-3.561
			c-0.004-1.003,0.394-1.792,1.274-2.282c0.868-0.484,1.737-0.402,2.575,0.118c1.94,1.202,3.888,2.394,5.822,3.605
			c1.733,1.085,1.732,3.234-0.004,4.323c-1.944,1.22-3.9,2.422-5.854,3.627c-0.827,0.51-1.69,0.567-2.542,0.092
			c-0.851-0.474-1.264-1.234-1.269-2.207C-115.181,11.299-115.177,10.061-115.177,8.823z M-112.712,12.601
			c2.037-1.261,4.014-2.485,6.041-3.739c-2.042-1.264-4.021-2.487-6.041-3.737C-112.712,7.637-112.712,10.083-112.712,12.601z"/>
	</g>
</g>
<g>
	<g>
		<path fill-rule="evenodd" clip-rule="evenodd" fill="#1E4261" d="M98.845,0.086c-9.449-0.001-18.896-0.001-28.345,0
			c-1.498,0-2.513,0.897-2.515,2.386c-0.002,2.086-0.115,4.171-0.115,6.258c0,0.157,0,0.312,0,0.489c-1,0-2.792-0.005-4.209,0.002
			c-1.401,0.005-2.248,0.903-2.248,2.299c-0.003,6.749,0.025,13.497,0.028,20.245c0,1.409,0.932,2.322,2.353,2.324
			c9.489,0.003,18.986,0.002,28.475,0c1.437-0.001,2.346-0.92,2.347-2.36c0.002-6.721,0.003-13.442,0.002-20.164
			c0-0.203-0.003-0.412-0.045-0.609c-0.235-1.088-1.094-1.846-2.299-1.846C85.512,9.108,78.751,9,71.988,9c-0.174,0-2.117,0-2.117,0
			c0-1,0-3,0-5c11,0,19,0,28,0c0,7,0,14,0,21c0,0,0.604,0,0.887,0c1.534,0,2.449-0.896,2.449-2.431
			c0.001-6.681,0.023-13.373,0.021-20.053C101.228,0.989,100.364,0.086,98.845,0.086z M89.871,12c0,4,0,8.095,0,11.938
			c0-0.154,0.442-0.254,0.34-0.352c-1.439-1.396-2.521-2.793-3.963-4.187c-0.709-0.687-1.233-0.614-1.805,0.2
			c-1.307,1.861-2.522,3.727-3.826,5.592c-0.645,0.921-1.351,0.965-2.085,0.112c-0.96-1.114-1.892-2.236-2.852-3.351
			c-0.673-0.782-1.294-0.803-2.026-0.072c-2.834,2.834-5.627,5.668-8.461,8.501c-0.104,0.103-0.322,0.199-0.322,0.347
			c0-6.1,0-12.729,0-18.729C73.871,12,82.871,12,89.871,12z"/>
		<path fill-rule="evenodd" clip-rule="evenodd" fill="#1E4261" d="M78.056,20.118c1.666-0.003,2.955-1.289,2.961-2.955
			c0.006-1.682-1.295-2.977-2.984-2.97c-1.688,0.006-2.978,1.31-2.961,2.993C75.088,18.849,76.383,20.122,78.056,20.118z"/>
	</g>
</g>
<g>
	<g>
		<path fill-rule="evenodd" clip-rule="evenodd" fill="#1E4261" d="M48.398-17.318c-0.893-2.799-0.881-5.629,0.371-8.28
			c2.92-6.18,7.921-8.238,14.494-7.012c0-2.341,0.003-4.726,0-7.11c-0.005-3.045-2.227-5.271-5.279-5.277
			c-3.524-0.006-7.093-0.002-10.617,0c-0.141,0-0.496,0.015-0.496,0.024c0,0.201,0,0.359,0,0.518c0,1.756,0.075,3.512,0.024,5.267
			c-0.072,2.55-2.047,4.802-4.567,5.227c-0.473,0.079-0.924,0.094-1.404,0.098c-1.672,0.011-3.053,0.004-5.053,0.004
			c0,0.185,0,0.316,0,0.448c0,5.803-0.026,11.605-0.022,17.408c0,0.32-0.012,0.647,0.044,0.962c0.453,2.603,2.513,4.337,5.183,4.342
			c4.007,0.008,8.011,0.002,12.018,0.001c0.126,0,0.253-0.012,0.485-0.024C51.038-12.368,49.291-14.522,48.398-17.318z"/>
		<path fill-rule="evenodd" clip-rule="evenodd" fill="#1E4261" d="M59.864-31.287c-5.661-0.033-10.321,4.608-10.33,10.288
			C49.525-15.331,54.115-10.728,59.8-10.7c5.692,0.026,10.308-4.569,10.317-10.275C70.128-26.652,65.553-31.253,59.864-31.287z
			 M59.847-26.138c0.935,0.012,1.709,0.796,1.705,1.725c-0.007,0.936-0.779,1.707-1.715,1.71c-0.941,0.002-1.712-0.761-1.719-1.701
			C58.11-25.357,58.901-26.15,59.847-26.138z M61.505-17.245c-0.144,0.882-0.91,1.45-1.822,1.39
			c-0.834-0.056-1.527-0.752-1.559-1.604c-0.023-0.628-0.021-1.259-0.002-1.886c0.029-0.883,0.726-1.576,1.618-1.642
			c0.843-0.061,1.633,0.558,1.769,1.423c0.058,0.38,0.045,0.771,0.065,1.174C61.554-18.018,61.567-17.625,61.505-17.245z"/>
		<path fill-rule="evenodd" clip-rule="evenodd" fill="#1E4261" d="M41.703-35.611c1.819-0.105,3.309-1.48,3.455-3.298
			c0.154-1.914,0.035-3.85,0.035-5.619c-2.941,2.939-5.97,5.967-8.944,8.941C37.987-35.587,39.849-35.504,41.703-35.611z"/>
	</g>
</g>
<g>
	<g>
		<path fill-rule="evenodd" clip-rule="evenodd" fill="#1E4261" d="M20.086,26.908c0-8.553-0.004-17.056,0.009-25.61
			C20.096,0.678,19.931,0,19.349,0C13.148,0,6.947,0,0.746,0C0.166,0-0.001,0.748,0,1.37c0.014,8.542,0.009,16.952,0.009,25.493
			C0.009,27.781,0.361,28,1.283,28c5.854,0,11.708,0,17.563,0C19.72,28,20.086,27.779,20.086,26.908z M4.143,5.131
			c1.927-0.002,3.853-0.002,5.78,0c0.674,0,1.131,0.411,1.128,1.007c-0.003,0.597-0.458,0.998-1.138,0.999
			c-0.958,0.002-1.916,0-2.873,0c-0.969,0-1.938,0.002-2.907,0C3.481,7.135,3.029,6.728,3.022,6.146
			C3.015,5.55,3.474,5.131,4.143,5.131z M3.131,9.707c0.202-0.398,0.544-0.563,0.984-0.563C6.21,9.147,8.306,9.145,10.4,9.145
			c1.872,0,3.744-0.004,5.616,0.002c0.793,0.003,1.286,0.748,0.954,1.429c-0.201,0.416-0.555,0.58-1.008,0.579
			c-1.973-0.004-3.944-0.001-5.917-0.001c-1.983,0-3.967,0.003-5.95-0.002C3.283,11.149,2.782,10.396,3.131,9.707z M3.108,13.767
			c0.195-0.431,0.554-0.609,1.023-0.608c1.983,0.005,3.966,0.002,5.95,0.002c1.972,0,3.945-0.003,5.917,0.001
			c0.813,0.002,1.311,0.753,0.963,1.443c-0.201,0.4-0.543,0.564-0.982,0.564c-1.827-0.002-3.655-0.001-5.482-0.001
			c-2.128,0-4.257,0.002-6.385-0.001C3.31,15.166,2.796,14.452,3.108,13.767z M15.991,23.198c-0.635,0.004-1.27,0.001-1.903,0.001
			c-0.646,0-1.292,0.002-1.937-0.001c-0.645-0.003-1.098-0.42-1.098-1.003c0-0.584,0.455-1.002,1.1-1.004
			c1.28-0.001,2.561-0.002,3.841,0.001c0.625,0.001,1.071,0.414,1.081,0.987C17.083,22.765,16.63,23.194,15.991,23.198z
			 M16.013,19.182c-1.994,0.006-3.989,0.002-5.984,0.002c-1.983,0-3.967,0.004-5.95-0.002c-0.776-0.003-1.276-0.727-0.971-1.399
			c0.183-0.403,0.513-0.604,0.957-0.605c0.958-0.002,1.917,0,2.875,0c2.998,0,5.995,0.002,8.993-0.002
			c0.449-0.001,0.81,0.14,1.024,0.551C17.315,18.411,16.822,19.179,16.013,19.182z"/>
		<path fill-rule="evenodd" clip-rule="evenodd" fill="#1E4261" d="M25.871,30.018c0-7.57,0-15.142,0-22.711
			c0-0.784-0.268-1.171-1.051-1.171c-0.846-0.002-2.245-0.002-3.092,0c-0.097,0-0.857,0.012-0.857,0.02c0,0.158,0,0.291,0,0.423
			c0,6.812,0,13.624,0,20.437c0,2.028-0.022,2.986-2.041,2.986c-4.125,0-8.25,0-12.375,0c-0.131,0-0.261,0-0.422,0
			c0,1,0.026,1.784-0.008,2.66C5.999,33.283,6.189,34,6.769,34c6.201,0,12.403,0,18.605,0c0.578,0,0.647-0.571,0.626-1.194
			C25.964,31.825,25.871,30.998,25.871,30.018z"/>
	</g>
</g>
<rect x="252.871" y="-192" fill-rule="evenodd" clip-rule="evenodd" width="41" height="33"/>
</svg>
