<?xml version="1.0" encoding="utf-8"?>
<!-- Generator: Adobe Illustrator 16.0.0, SVG Export Plug-In . SVG Version: 6.00 Build 0)  -->
<!DOCTYPE svg PUBLIC "-//W3C//DTD SVG 1.1//EN" "http://www.w3.org/Graphics/SVG/1.1/DTD/svg11.dtd">
<svg version="1.1" id="Camada_1" xmlns="http://www.w3.org/2000/svg" xmlns:xlink="http://www.w3.org/1999/xlink" x="0px" y="0px"
	 width="315px" height="261px" viewBox="0 0 315 261" enable-background="new 0 0 315 261" xml:space="preserve">
<g>
	<path fill-rule="evenodd" clip-rule="evenodd" fill="#1E4261" d="M80.613,37.6c34.608,0,69.217,0,103.826,0
		c3.246,1.482,4.162,4.059,4.157,7.522c-0.073,47.73-0.05,95.461-0.05,143.191c0,4.863-2.038,6.891-6.921,6.891
		c-32.672,0.001-65.342,0.001-98.014,0.001c-5.144-0.001-7.106-1.956-7.106-7.079c0-47.668,0.024-95.336-0.052-143.004
		C76.45,41.651,77.379,39.088,80.613,37.6z M132.503,99.596c11.007,0,22.013-0.013,33.02,0.01c2.527,0.005,4.5-0.898,5.633-3.216
		c1.86-3.803-0.889-7.969-5.308-7.985c-9.452-0.037-18.903-0.012-28.355-0.012c-12.686,0-25.371,0.01-38.057-0.009
		c-2.542-0.003-4.488,0.978-5.587,3.294c-1.804,3.807,1.005,7.896,5.447,7.908C110.364,99.615,121.435,99.596,132.503,99.596z
		 M132.552,122.004c11.007,0,22.014-0.012,33.021,0.01c2.621,0.005,4.615-1.011,5.691-3.425c1.681-3.769-1.126-7.77-5.465-7.777
		c-13.122-0.028-26.242-0.011-39.363-0.011c-9.017,0-18.033,0.011-27.049-0.007c-2.548-0.005-4.48,1.016-5.561,3.335
		c-1.773,3.813,1.062,7.856,5.52,7.867C110.415,122.021,121.483,122.004,132.552,122.004z M132.715,133.209
		c-11.068,0-22.139,0.016-33.207-0.012c-2.622-0.006-4.618,0.995-5.71,3.397c-1.736,3.823,1.13,7.804,5.612,7.812
		c12.126,0.02,24.251,0.007,36.377,0.007c9.95,0,19.899-0.009,29.849,0.005c2.452,0.004,4.364-0.915,5.486-3.147
		c1.936-3.856-0.85-8.042-5.387-8.053C154.728,133.191,143.722,133.209,132.715,133.209z M115.738,77.188
		c5.344,0,10.688,0.007,16.033-0.002c3.792-0.007,6.331-2.247,6.35-5.573c0.019-3.328-2.531-5.622-6.294-5.625
		c-10.751-0.009-21.502-0.009-32.252,0c-3.736,0.003-6.298,2.339-6.257,5.661c0.039,3.253,2.565,5.525,6.199,5.535
		C104.924,77.198,110.332,77.188,115.738,77.188z M154.93,155.617c-3.54,0-7.08-0.012-10.622,0.003
		c-3.617,0.016-6.149,2.305-6.174,5.555c-0.022,3.259,2.507,5.632,6.089,5.64c7.144,0.02,14.286,0.02,21.43,0
		c3.589-0.009,6.109-2.38,6.08-5.647c-0.028-3.263-2.544-5.531-6.181-5.547C162.012,155.606,158.471,155.617,154.93,155.617z"/>
	<path fill-rule="evenodd" clip-rule="evenodd" fill="#FFFFFF" d="M132.503,99.596c-11.068,0-22.139,0.02-33.207-0.01
		c-4.442-0.012-7.251-4.102-5.447-7.908c1.099-2.316,3.045-3.297,5.587-3.294c12.686,0.019,25.371,0.009,38.057,0.009
		c9.452,0,18.903-0.025,28.355,0.012c4.419,0.017,7.168,4.183,5.308,7.985c-1.133,2.317-3.105,3.221-5.633,3.216
		C154.516,99.583,143.51,99.596,132.503,99.596z"/>
	<path fill-rule="evenodd" clip-rule="evenodd" fill="#FFFFFF" d="M132.552,122.004c-11.068,0-22.137,0.018-33.206-0.008
		c-4.458-0.011-7.293-4.054-5.52-7.867c1.08-2.319,3.013-3.34,5.561-3.335c9.016,0.018,18.032,0.007,27.049,0.007
		c13.121,0,26.241-0.018,39.363,0.011c4.339,0.008,7.146,4.009,5.465,7.777c-1.076,2.414-3.07,3.43-5.691,3.425
		C154.565,121.992,143.559,122.004,132.552,122.004z"/>
	<path fill-rule="evenodd" clip-rule="evenodd" fill="#FFFFFF" d="M132.715,133.209c11.007,0,22.013-0.018,33.021,0.009
		c4.537,0.011,7.322,4.196,5.387,8.053c-1.122,2.232-3.034,3.151-5.486,3.147c-9.949-0.014-19.898-0.005-29.849-0.005
		c-12.126,0-24.251,0.013-36.377-0.007c-4.482-0.008-7.349-3.988-5.612-7.812c1.092-2.402,3.088-3.403,5.71-3.397
		C110.576,133.225,121.646,133.209,132.715,133.209z"/>
	<path fill-rule="evenodd" clip-rule="evenodd" fill="#FFFFFF" d="M115.738,77.188c-5.406,0-10.814,0.011-16.221-0.004
		c-3.634-0.01-6.16-2.282-6.199-5.535c-0.041-3.322,2.521-5.658,6.257-5.661c10.75-0.009,21.501-0.009,32.252,0
		c3.763,0.003,6.313,2.297,6.294,5.625c-0.019,3.326-2.558,5.566-6.35,5.573C126.427,77.194,121.082,77.188,115.738,77.188z"/>
	<path fill-rule="evenodd" clip-rule="evenodd" fill="#FFFFFF" d="M154.93,155.617c3.541,0,7.082-0.011,10.622,0.003
		c3.637,0.016,6.152,2.284,6.181,5.547c0.029,3.268-2.491,5.639-6.08,5.647c-7.144,0.02-14.286,0.02-21.43,0
		c-3.582-0.008-6.111-2.381-6.089-5.64c0.024-3.25,2.557-5.539,6.174-5.555C147.85,155.605,151.39,155.617,154.93,155.617z"/>
	<path fill-rule="evenodd" clip-rule="evenodd" fill="#1E4261" d="M110.119,206.409c0.969,0,1.706,0,2.442,0
		c23.028,0,46.058,0.001,69.085-0.001c11.063-0.001,18.104-7.017,18.104-18.046c0.004-38.09,0.001-76.181,0.001-114.271
		c0-0.743,0-1.484,0-2.36c0.542-0.053,1.013-0.139,1.484-0.14c4.917-0.01,9.833-0.018,14.75-0.002
		c3.874,0.014,6.168,2.276,6.169,6.14c0.008,48.298,0.008,96.596,0.001,144.893c-0.001,3.88-2.28,6.188-6.121,6.189
		c-33.237,0.01-66.472,0.009-99.708,0.002c-3.887-0.001-6.188-2.273-6.203-6.107C110.104,217.36,110.119,212.016,110.119,206.409z"
		/>
</g>
</svg>
