<?xml version="1.0" encoding="utf-8"?>
<!-- Generator: Adobe Illustrator 16.0.0, SVG Export Plug-In . SVG Version: 6.00 Build 0)  -->
<!DOCTYPE svg PUBLIC "-//W3C//DTD SVG 1.1//EN" "http://www.w3.org/Graphics/SVG/1.1/DTD/svg11.dtd">
<svg version="1.1" id="Camada_1" xmlns="http://www.w3.org/2000/svg" xmlns:xlink="http://www.w3.org/1999/xlink" x="0px" y="0px"
	 width="315px" height="261px" viewBox="0 0 315 261" enable-background="new 0 0 315 261" xml:space="preserve">
<g>
	<path fill-rule="evenodd" clip-rule="evenodd" fill="#1E4261" d="M167.208,38.16c1.587,0.841,2.119,2.184,2.112,3.94
		c-0.034,11.523-0.009,23.048-0.022,34.571c-0.003,2.918-0.971,3.878-3.852,3.88c-11.584,0.008-23.169,0.008-34.755,0
		c-2.892-0.002-3.849-0.947-3.853-3.871c-0.014-11.523,0.013-23.048-0.024-34.571c-0.007-1.758,0.513-3.101,2.096-3.949
		C141.676,38.16,154.442,38.16,167.208,38.16z M144.357,61.746c-1.219-1.363-2.204-2.63-3.361-3.714
		c-1.209-1.133-2.877-1.039-3.98,0.02c-1.153,1.106-1.256,2.864-0.073,4.124c1.802,1.921,3.665,3.79,5.585,5.592
		c1.245,1.169,2.767,1.219,3.979,0.036c4.302-4.19,8.544-8.444,12.747-12.734c1.153-1.178,1.045-2.881-0.003-3.997
		c-1.084-1.15-2.813-1.21-4.143-0.112c-0.424,0.351-0.797,0.761-1.187,1.152C150.856,55.197,147.794,58.284,144.357,61.746z"/>
	<path fill-rule="evenodd" clip-rule="evenodd" fill="#1E4261" d="M128.91,226.708c-1.576-0.853-2.101-2.192-2.094-3.951
		c0.039-11.524,0.012-23.049,0.024-34.573c0.004-2.926,0.958-3.866,3.853-3.868c11.586-0.007,23.172-0.008,34.757,0
		c2.886,0.002,3.846,0.957,3.85,3.878c0.013,11.525-0.012,23.049,0.023,34.574c0.005,1.756-0.533,3.097-2.115,3.94
		C154.442,226.708,141.676,226.708,128.91,226.708z M144.427,207.783c-1.169-1.27-2.149-2.457-3.261-3.508
		c-1.348-1.273-3.141-1.23-4.277-0.029c-1.105,1.166-1.118,2.831,0.115,4.14c1.727,1.829,3.511,3.607,5.33,5.342
		c1.389,1.325,2.999,1.301,4.426-0.001c0.952-0.866,1.833-1.81,2.744-2.721c3.168-3.169,6.366-6.308,9.487-9.52
		c1.748-1.8,1.214-4.31-0.961-5.046c-1.432-0.486-2.481,0.154-3.443,1.124C151.305,200.876,148.014,204.176,144.427,207.783z"/>
	<path fill-rule="evenodd" clip-rule="evenodd" fill="#1E4261" d="M53.785,113.284c0.887-1.663,2.316-2.116,4.128-2.108
		c11.403,0.044,22.807,0.017,34.209,0.024c3.166,0.003,4.063,0.897,4.063,4.034c0.005,11.465,0.005,22.929,0,34.393
		c-0.001,3.135-0.9,4.037-4.062,4.04c-11.401,0.009-22.806-0.019-34.208,0.025c-1.813,0.007-3.24-0.451-4.131-2.109
		C53.785,138.817,53.785,126.051,53.785,113.284z M71.191,134.854c-0.55-0.782-0.934-1.414-1.404-1.973
		c-0.472-0.56-1.011-1.067-1.555-1.559c-1.459-1.313-3.028-1.368-4.264-0.178c-1.234,1.19-1.275,2.861,0.037,4.253
		c1.723,1.824,3.499,3.602,5.32,5.328c1.318,1.249,2.872,1.353,4.12,0.136c4.292-4.19,8.533-8.435,12.729-12.722
		c1.207-1.235,1.058-3.013-0.104-4.118c-1.117-1.063-2.692-1.088-3.994-0.028c-0.424,0.348-0.798,0.759-1.187,1.147
		C77.819,128.214,74.751,131.289,71.191,134.854z"/>
	<path fill-rule="evenodd" clip-rule="evenodd" fill="#1E4261" d="M242.334,150.11c-0.896,1.652-2.325,2.114-4.135,2.108
		c-11.402-0.043-22.806-0.017-34.21-0.026c-3.158-0.002-4.054-0.906-4.056-4.045c-0.004-11.465-0.004-22.929,0-34.394
		c0.002-3.139,0.891-4.023,4.064-4.026c11.402-0.008,22.806,0.02,34.208-0.026c1.816-0.007,3.238,0.453,4.128,2.11
		C242.334,124.578,242.334,137.344,242.334,150.11z M217.484,133.229c-1.175-1.269-2.088-2.348-3.1-3.326
		c-1.487-1.438-3.15-1.497-4.396-0.253c-1.21,1.208-1.135,2.96,0.259,4.403c1.533,1.59,3.108,3.139,4.681,4.688
		c2.005,1.977,3.335,1.986,5.333,0.006c3.309-3.284,6.598-6.591,9.895-9.888c0.694-0.694,1.424-1.357,2.066-2.096
		c1.188-1.365,1.179-2.978,0.046-4.142c-1.164-1.191-2.883-1.174-4.279,0.067c-0.458,0.406-0.872,0.862-1.306,1.298
		C223.704,126.979,220.725,129.973,217.484,133.229z"/>
	<path fill-rule="evenodd" clip-rule="evenodd" fill="#1E4261" d="M185.896,107.088c-0.384,0.858-0.63,1.611-1.031,2.271
		c-1.211,1.988-2.564,3.896-3.683,5.934c-0.366,0.667-0.347,1.659-0.226,2.458c0.417,2.718,2.297,3.687,4.83,3.985
		c1.695,0.2,3.353,0.713,5.027,1.086c1.671,0.372,2.526,1.427,2.533,3.126c0.015,4.295,0.008,8.589,0.004,12.884
		c-0.001,1.787-0.884,2.855-2.632,3.242c-2.452,0.541-4.918,1.041-7.335,1.709c-0.628,0.174-1.227,0.821-1.625,1.399
		c-1.563,2.259-1.185,4.33,0.571,6.395c1.061,1.249,1.802,2.77,2.695,4.163c0.961,1.495,0.87,2.896-0.394,4.166
		c-3.028,3.044-6.063,6.082-9.109,9.109c-1.27,1.263-2.673,1.339-4.168,0.38c-2.064-1.321-4.1-2.699-6.233-3.898
		c-0.616-0.347-1.559-0.334-2.298-0.196c-2.597,0.484-3.83,2.128-4.06,4.774c-0.146,1.693-0.715,3.35-1.073,5.025
		c-0.376,1.76-1.46,2.624-3.243,2.626c-4.232,0.005-8.467-0.003-12.699,0.005c-1.869,0.002-2.962-0.884-3.35-2.731
		c-0.504-2.396-0.999-4.801-1.671-7.154c-0.193-0.678-0.887-1.315-1.504-1.753c-2.204-1.557-4.218-1.136-6.23,0.57
		c-1.25,1.062-2.777,1.791-4.165,2.692c-1.558,1.011-2.985,0.92-4.314-0.412c-2.989-2.997-5.981-5.99-8.978-8.98
		c-1.333-1.332-1.403-2.757-0.393-4.314c1.335-2.057,2.697-4.101,3.91-6.229c0.324-0.568,0.295-1.448,0.176-2.142
		c-0.462-2.726-2.25-3.871-4.908-4.154c-1.754-0.187-3.479-0.706-5.203-1.128c-1.49-0.364-2.326-1.366-2.338-2.9
		c-0.034-4.416-0.03-8.833-0.005-13.251c0.01-1.617,0.867-2.639,2.448-3.005c2.445-0.566,4.917-1.038,7.334-1.711
		c0.688-0.192,1.366-0.838,1.798-1.452c1.578-2.252,1.179-4.327-0.57-6.392c-1.061-1.25-1.803-2.77-2.696-4.163
		c-0.959-1.496-0.868-2.891,0.398-4.162c3.033-3.042,6.068-6.079,9.11-9.109c1.275-1.269,2.67-1.335,4.164-0.378
		c2.064,1.323,4.101,2.699,6.235,3.897c0.617,0.347,1.557,0.329,2.301,0.202c2.748-0.47,3.79-2.356,4.082-4.963
		c0.183-1.634,0.701-3.229,1.047-4.846c0.373-1.761,1.455-2.623,3.241-2.624c4.232-0.002,8.465,0.007,12.698-0.004
		c1.874-0.005,2.962,0.884,3.352,2.727c0.507,2.396,1,4.801,1.671,7.154c0.192,0.679,0.88,1.324,1.501,1.754
		c2.194,1.516,4.217,1.168,6.232-0.557c1.244-1.064,2.775-1.794,4.16-2.7c1.556-1.02,2.986-0.925,4.313,0.403
		c2.992,2.994,6.007,5.967,8.958,9C185.117,105.496,185.431,106.316,185.896,107.088z M148.089,108.547
		c-13.087-0.059-23.868,10.716-23.915,23.901c-0.046,12.972,10.779,23.849,23.762,23.873c13.168,0.027,23.977-10.694,24.007-23.811
		C171.971,119.363,161.264,108.604,148.089,108.547z"/>
	<path fill-rule="evenodd" clip-rule="evenodd" fill="#1E4261" d="M174.467,199.098c0.022-1.5,1.217-2.203,2.551-2.812
		c7.312-3.341,13.862-7.805,19.646-13.389c6.601-6.372,11.793-13.738,15.522-22.129c0.222-0.503,0.438-1.012,0.688-1.503
		c0.854-1.675,2.421-2.334,3.952-1.677c1.502,0.646,2.193,2.324,1.395,4.047c-1.467,3.162-2.913,6.357-4.688,9.349
		c-8.214,13.844-19.708,24.058-34.322,30.835C176.656,203.004,174.337,201.468,174.467,199.098z"/>
	<path fill-rule="evenodd" clip-rule="evenodd" fill="#1E4261" d="M121.641,65.406c0.037,1.591-0.909,2.426-2.239,3.028
		c-5.386,2.438-10.415,5.463-15.036,9.16c-8.527,6.821-15.131,15.156-19.762,25.05c-1.449,3.1-2.753,3.978-4.677,3.144
		c-1.906-0.827-2.14-2.592-0.644-5.706c8.099-16.849,20.636-29.194,37.644-36.975C119.43,61.963,121.577,63.038,121.641,65.406z"/>
	<path fill-rule="evenodd" clip-rule="evenodd" fill="#1E4261" d="M81.191,158.807c1.695,0.048,2.41,1.227,3.016,2.568
		c3.808,8.425,9.086,15.802,15.817,22.139c5.305,4.996,11.257,9.047,17.827,12.192c0.497,0.238,0.999,0.466,1.493,0.708
		c2.096,1.029,2.825,2.549,2.038,4.232c-0.761,1.622-2.456,2.039-4.567,1.063c-17.401-8.027-30.064-20.765-38.139-38.146
		C77.489,161.01,79.004,158.721,81.191,158.807z"/>
	<path fill-rule="evenodd" clip-rule="evenodd" fill="#1E4261" d="M176.838,62.232c1.09,0.39,1.682,0.551,2.232,0.804
		c16.938,7.753,29.496,19.997,37.633,36.76c0.955,1.969,0.544,3.644-1.021,4.439c-1.662,0.847-3.269,0.162-4.286-1.92
		c-7.524-15.421-19.076-26.714-34.661-33.893c-1.987-0.917-2.838-2.156-2.165-3.664C175.027,63.735,176.122,62.999,176.838,62.232z"
		/>
	<path fill-rule="evenodd" clip-rule="evenodd" fill="#FFFFFF" d="M144.357,61.746c3.437-3.462,6.499-6.549,9.564-9.634
		c0.39-0.392,0.763-0.802,1.187-1.152c1.329-1.098,3.059-1.038,4.143,0.112c1.048,1.116,1.156,2.819,0.003,3.997
		c-4.203,4.29-8.445,8.544-12.747,12.734c-1.213,1.183-2.734,1.133-3.979-0.036c-1.92-1.802-3.783-3.671-5.585-5.592
		c-1.183-1.26-1.08-3.018,0.073-4.124c1.104-1.059,2.771-1.152,3.98-0.02C142.153,59.116,143.139,60.383,144.357,61.746z"/>
	<path fill-rule="evenodd" clip-rule="evenodd" fill="#FFFFFF" d="M144.427,207.783c3.587-3.607,6.878-6.907,10.16-10.219
		c0.962-0.97,2.012-1.61,3.443-1.124c2.175,0.736,2.709,3.246,0.961,5.046c-3.121,3.212-6.319,6.351-9.487,9.52
		c-0.911,0.911-1.792,1.854-2.744,2.721c-1.427,1.302-3.037,1.326-4.426,0.001c-1.819-1.734-3.604-3.513-5.33-5.342
		c-1.233-1.309-1.221-2.974-0.115-4.14c1.137-1.201,2.93-1.244,4.277,0.029C142.277,205.326,143.258,206.514,144.427,207.783z"/>
	<path fill-rule="evenodd" clip-rule="evenodd" fill="#FFFFFF" d="M71.191,134.854c3.56-3.564,6.628-6.64,9.698-9.713
		c0.389-0.389,0.763-0.8,1.187-1.147c1.302-1.06,2.877-1.034,3.994,0.028c1.162,1.105,1.312,2.883,0.104,4.118
		c-4.195,4.287-8.437,8.531-12.729,12.722c-1.248,1.217-2.802,1.113-4.12-0.136c-1.821-1.727-3.598-3.504-5.32-5.328
		c-1.313-1.392-1.271-3.063-0.037-4.253c1.235-1.19,2.805-1.136,4.264,0.178c0.544,0.491,1.083,0.999,1.555,1.559
		C70.258,133.439,70.642,134.071,71.191,134.854z"/>
	<path fill-rule="evenodd" clip-rule="evenodd" fill="#FFFFFF" d="M217.484,133.229c3.24-3.257,6.22-6.25,9.198-9.241
		c0.434-0.436,0.848-0.892,1.306-1.298c1.396-1.241,3.115-1.259,4.279-0.067c1.133,1.164,1.142,2.776-0.046,4.142
		c-0.643,0.738-1.372,1.401-2.066,2.096c-3.297,3.297-6.586,6.604-9.895,9.888c-1.998,1.98-3.328,1.971-5.333-0.006
		c-1.572-1.55-3.147-3.099-4.681-4.688c-1.394-1.443-1.469-3.195-0.259-4.403c1.246-1.244,2.909-1.185,4.396,0.253
		C215.396,130.882,216.31,131.961,217.484,133.229z"/>
	<path fill-rule="evenodd" clip-rule="evenodd" fill="#FFFFFF" d="M148.089,108.547c13.175,0.058,23.882,10.816,23.854,23.964
		c-0.03,13.116-10.839,23.838-24.007,23.811c-12.982-0.024-23.808-10.901-23.762-23.873
		C124.221,119.263,135.002,108.488,148.089,108.547z M147.968,114.438c-9.807,0.037-17.96,8.232-17.899,17.989
		c0.063,9.941,8.169,18.009,18.089,17.998c9.781-0.01,17.881-8.155,17.891-17.996C166.058,122.539,157.878,114.399,147.968,114.438z
		"/>
	<path fill-rule="evenodd" clip-rule="evenodd" fill="#1E4261" d="M147.968,114.438c9.91-0.039,18.09,8.101,18.08,17.991
		c-0.01,9.841-8.109,17.986-17.891,17.996c-9.92,0.011-18.026-8.057-18.089-17.998C130.008,122.671,138.161,114.476,147.968,114.438
		z"/>
</g>
</svg>
