<?xml version="1.0" encoding="utf-8"?>
<!-- Generator: Adobe Illustrator 16.0.0, SVG Export Plug-In . SVG Version: 6.00 Build 0)  -->
<!DOCTYPE svg PUBLIC "-//W3C//DTD SVG 1.1//EN" "http://www.w3.org/Graphics/SVG/1.1/DTD/svg11.dtd">
<svg version="1.1" id="Camada_1" xmlns="http://www.w3.org/2000/svg" xmlns:xlink="http://www.w3.org/1999/xlink" x="0px" y="0px"
	 width="33.974px" height="34px" viewBox="0 0 33.974 34" enable-background="new 0 0 33.974 34" xml:space="preserve">
<g>
	<g>
		<path fill-rule="evenodd" clip-rule="evenodd" fill="#1E4261" d="M16.989,24.32c-4.373,0-8.745,0-13.116-0.001
			C1.545,24.319,0,22.777,0,20.453c0-5.51,0-11.02,0-16.529c0-2.328,1.541-3.871,3.868-3.871c8.743-0.001,17.488-0.001,26.232,0
			c2.332,0,3.872,1.537,3.872,3.866c0.002,5.511,0.002,11.019,0.001,16.53c-0.001,2.33-1.542,3.87-3.869,3.87
			C25.734,24.32,21.361,24.32,16.989,24.32z M17.007,2.48c-4.387,0-8.771,0-13.156,0c-0.954,0-1.423,0.465-1.423,1.412
			c0,5.523,0,11.045,0,16.568c0,0.975,0.459,1.433,1.442,1.433c8.744,0,17.49,0,26.235,0c0.981,0,1.444-0.456,1.444-1.432
			c0-5.51,0-11.021,0-16.531c0-1.001-0.454-1.45-1.463-1.451C25.725,2.48,21.367,2.48,17.007,2.48z"/>
		<path fill-rule="evenodd" clip-rule="evenodd" fill="#1E4261" d="M9.52,29.172c0.143,0,0.292,0,0.446,0
			c7.501,0,15.007,0,22.51,0.003c0.177,0,0.358-0.008,0.529,0.026c0.596,0.122,1.006,0.675,0.966,1.272
			c-0.043,0.596-0.532,1.082-1.138,1.122c-0.139,0.011-0.277,0.005-0.418,0.005c-7.503,0-15.007,0.001-22.511-0.007
			c-0.304,0-0.447,0.084-0.589,0.37c-0.672,1.334-1.775,2.063-3.275,2.051c-1.497-0.012-2.587-0.756-3.246-2.099
			c-0.118-0.241-0.238-0.339-0.504-0.321c-0.352,0.022-0.707,0.012-1.061,0.004c-0.705-0.018-1.235-0.549-1.229-1.224
			c0.007-0.667,0.527-1.182,1.215-1.2c0.34-0.008,0.682-0.02,1.022,0.004c0.288,0.021,0.437-0.065,0.567-0.343
			c0.925-1.974,3.316-2.685,5.164-1.548C8.555,27.649,8.848,28.003,9.52,29.172z M6.077,29.175c-0.66-0.007-1.212,0.531-1.222,1.19
			c-0.011,0.657,0.527,1.218,1.182,1.233c0.672,0.015,1.241-0.539,1.241-1.21C7.278,29.727,6.735,29.18,6.077,29.175z"/>
		<path fill-rule="evenodd" clip-rule="evenodd" fill="#1E4261" d="M12.134,12.147c0-1.174,0.005-2.349-0.002-3.524
			c-0.004-0.993,0.392-1.773,1.262-2.259c0.858-0.479,1.719-0.398,2.55,0.117c1.919,1.189,3.846,2.369,5.762,3.568
			c1.715,1.075,1.713,3.201-0.005,4.278c-1.924,1.207-3.859,2.398-5.792,3.591c-0.819,0.502-1.675,0.561-2.519,0.089
			c-0.841-0.469-1.251-1.221-1.256-2.184C12.131,14.599,12.134,13.373,12.134,12.147z M14.574,15.887
			c2.015-1.248,3.973-2.459,5.978-3.701c-2.02-1.251-3.979-2.462-5.978-3.699C14.574,10.975,14.574,13.395,14.574,15.887z"/>
	</g>
</g>
<g>
	<g>
		<path fill-rule="evenodd" clip-rule="evenodd" fill="#1E4261" d="M102.962,0.086c-9.449-0.001-18.896-0.001-28.345,0
			c-1.498,0-2.513,0.897-2.515,2.386c-0.002,2.086-0.115,4.171-0.115,6.258c0,0.157,0,0.312,0,0.489c-1,0-2.792-0.005-4.209,0.002
			c-1.401,0.005-2.248,0.903-2.248,2.299c-0.003,6.749,0.025,13.497,0.028,20.245c0,1.409,0.932,2.322,2.353,2.324
			c9.489,0.003,18.986,0.002,28.475,0c1.437-0.001,2.346-0.92,2.347-2.36c0.002-6.721,0.003-13.442,0.002-20.164
			c0-0.203-0.003-0.412-0.045-0.609c-0.235-1.088-1.094-1.846-2.299-1.846C89.629,9.108,82.868,9,76.104,9c-0.174,0-2.117,0-2.117,0
			c0-1,0-3,0-5c11,0,19,0,28,0c0,7,0,14,0,21c0,0,0.604,0,0.887,0c1.534,0,2.449-0.896,2.449-2.431
			c0.001-6.681,0.023-13.373,0.021-20.053C105.345,0.989,104.48,0.086,102.962,0.086z M93.987,12c0,4,0,8.095,0,11.938
			c0-0.154,0.442-0.254,0.34-0.352c-1.439-1.396-2.521-2.793-3.963-4.187c-0.709-0.687-1.233-0.614-1.805,0.2
			c-1.307,1.861-2.522,3.727-3.826,5.592c-0.645,0.921-1.351,0.965-2.085,0.112c-0.96-1.114-1.892-2.236-2.852-3.351
			c-0.673-0.782-1.294-0.803-2.026-0.072c-2.834,2.834-5.627,5.668-8.461,8.501c-0.104,0.103-0.322,0.199-0.322,0.347
			c0-6.1,0-12.729,0-18.729C77.987,12,86.987,12,93.987,12z"/>
		<path fill-rule="evenodd" clip-rule="evenodd" fill="#1E4261" d="M82.173,20.118c1.666-0.003,2.955-1.289,2.961-2.955
			c0.006-1.682-1.295-2.977-2.984-2.97c-1.688,0.006-2.978,1.31-2.961,2.993C79.205,18.849,80.5,20.122,82.173,20.118z"/>
	</g>
</g>
<g>
	<g>
		<path fill-rule="evenodd" clip-rule="evenodd" fill="#1E4261" d="M52.515-17.318c-0.893-2.799-0.881-5.629,0.371-8.28
			c2.92-6.18,7.921-8.238,14.494-7.012c0-2.341,0.003-4.726,0-7.11c-0.005-3.045-2.227-5.271-5.279-5.277
			c-3.524-0.006-7.093-0.002-10.617,0c-0.141,0-0.496,0.015-0.496,0.024c0,0.201,0,0.359,0,0.518c0,1.756,0.075,3.512,0.024,5.267
			c-0.072,2.55-2.047,4.802-4.567,5.227c-0.473,0.079-0.924,0.094-1.404,0.098c-1.672,0.011-3.053,0.004-5.053,0.004
			c0,0.185,0,0.316,0,0.448c0,5.803-0.026,11.605-0.022,17.408c0,0.32-0.012,0.647,0.044,0.962c0.453,2.603,2.513,4.337,5.183,4.342
			c4.007,0.008,8.011,0.002,12.018,0.001c0.126,0,0.253-0.012,0.485-0.024C55.154-12.368,53.407-14.522,52.515-17.318z"/>
		<path fill-rule="evenodd" clip-rule="evenodd" fill="#1E4261" d="M63.98-31.287c-5.661-0.033-10.321,4.608-10.33,10.288
			c-0.009,5.668,4.581,10.271,10.267,10.299c5.692,0.026,10.308-4.569,10.317-10.275C74.245-26.652,69.67-31.253,63.98-31.287z
			 M63.964-26.138c0.935,0.012,1.709,0.796,1.705,1.725c-0.007,0.936-0.779,1.707-1.715,1.71c-0.941,0.002-1.712-0.761-1.719-1.701
			C62.227-25.357,63.018-26.15,63.964-26.138z M65.622-17.245c-0.144,0.882-0.91,1.45-1.822,1.39
			c-0.834-0.056-1.527-0.752-1.559-1.604c-0.023-0.628-0.021-1.259-0.002-1.886c0.029-0.883,0.726-1.576,1.618-1.642
			c0.843-0.061,1.633,0.558,1.769,1.423c0.058,0.38,0.045,0.771,0.065,1.174C65.671-18.018,65.684-17.625,65.622-17.245z"/>
		<path fill-rule="evenodd" clip-rule="evenodd" fill="#1E4261" d="M45.819-35.611c1.819-0.105,3.309-1.48,3.455-3.298
			c0.154-1.914,0.035-3.85,0.035-5.619c-2.941,2.939-5.97,5.967-8.944,8.941C42.104-35.587,43.966-35.504,45.819-35.611z"/>
	</g>
</g>
<g>
	<g>
		<path fill-rule="evenodd" clip-rule="evenodd" fill="#1E4261" d="M69.203,56.908c0-8.553-0.004-17.056,0.009-25.61
			C69.213,30.678,69.048,30,68.466,30c-6.201,0-12.402,0-18.604,0c-0.58,0-0.746,0.748-0.746,1.37
			c0.014,8.542,0.01,16.952,0.01,25.493c0,0.918,0.352,1.137,1.273,1.137c5.854,0,11.709,0,17.563,0
			C68.837,58,69.203,57.779,69.203,56.908z M53.259,35.131c1.928-0.002,3.854-0.002,5.78,0c0.675,0,1.132,0.411,1.128,1.008
			c-0.004,0.596-0.458,0.997-1.138,0.998c-0.958,0.003-1.915,0.001-2.873,0.001c-0.969,0-1.938,0.002-2.907-0.001
			c-0.65-0.002-1.104-0.408-1.11-0.991C52.132,35.55,52.591,35.131,53.259,35.131z M52.248,39.707
			c0.202-0.398,0.544-0.563,0.984-0.563c2.095,0.002,4.19,0,6.284,0c1.873,0,3.744-0.004,5.616,0.003
			c0.793,0.003,1.286,0.747,0.954,1.429c-0.201,0.416-0.555,0.58-1.008,0.578c-1.973-0.004-3.944-0.001-5.916-0.001
			c-1.983-0.001-3.967,0.003-5.951-0.002C52.399,41.149,51.899,40.396,52.248,39.707z M52.226,43.768
			c0.195-0.432,0.553-0.609,1.023-0.609c1.982,0.006,3.966,0.003,5.949,0.003c1.973,0,3.945-0.003,5.918,0.001
			c0.813,0.002,1.311,0.753,0.963,1.443c-0.201,0.4-0.543,0.564-0.982,0.564c-1.827-0.003-3.654-0.002-5.482-0.002
			c-2.129,0-4.257,0.003-6.385-0.001C52.427,45.166,51.913,44.452,52.226,43.768z M65.107,53.198
			c-0.635,0.004-1.27,0.001-1.903,0.001c-0.646,0-1.291,0.002-1.938-0.001c-0.645-0.003-1.098-0.42-1.098-1.003
			c0-0.584,0.455-1.002,1.1-1.004c1.279-0.001,2.561-0.002,3.841,0.001c0.625,0.001,1.071,0.414,1.081,0.987
			C66.199,52.765,65.747,53.194,65.107,53.198z M65.13,49.182c-1.994,0.006-3.989,0.002-5.984,0.002
			c-1.982,0-3.967,0.004-5.949-0.002c-0.777-0.003-1.277-0.727-0.972-1.399c0.183-0.403,0.513-0.604,0.957-0.605
			c0.958-0.002,1.917-0.001,2.875-0.001c2.997,0,5.995,0.002,8.993-0.002c0.449-0.001,0.81,0.141,1.024,0.551
			C66.432,48.411,65.938,49.179,65.13,49.182z"/>
		<path fill-rule="evenodd" clip-rule="evenodd" fill="#1E4261" d="M74.987,60.018c0-7.57,0-15.142,0-22.711
			c0-0.784-0.268-1.172-1.051-1.172c-0.846-0.002-2.245-0.002-3.092,0c-0.097,0-0.857,0.012-0.857,0.02c0,0.158,0,0.291,0,0.423
			c0,6.812,0,13.624,0,20.437c0,2.028-0.022,2.986-2.041,2.986c-4.125,0-8.25,0-12.375,0c-0.131,0-0.262,0-0.422,0
			c0,1,0.025,1.784-0.009,2.66C55.115,63.283,55.306,64,55.886,64c6.201,0,12.402,0,18.604,0c0.578,0,0.647-0.571,0.626-1.194
			C75.081,61.825,74.987,60.998,74.987,60.018z"/>
	</g>
</g>
<rect x="256.987" y="-192" fill-rule="evenodd" clip-rule="evenodd" width="41" height="33"/>
</svg>
