<?xml version="1.0" encoding="utf-8"?>
<!-- Generator: Adobe Illustrator 16.0.0, SVG Export Plug-In . SVG Version: 6.00 Build 0)  -->
<!DOCTYPE svg PUBLIC "-//W3C//DTD SVG 1.1//EN" "http://www.w3.org/Graphics/SVG/1.1/DTD/svg11.dtd">
<svg version="1.1" id="Camada_1" xmlns="http://www.w3.org/2000/svg" xmlns:xlink="http://www.w3.org/1999/xlink" x="0px" y="0px"
	 width="34.247px" height="34px" viewBox="0 0 34.247 34" enable-background="new 0 0 34.247 34" xml:space="preserve">
<g>
	<g>
		<path fill-rule="evenodd" clip-rule="evenodd" fill="#1E4261" d="M-106.143,21.121c-4.417,0-8.834,0-13.251-0.001
			c-2.352,0-3.913-1.559-3.913-3.907c0-5.566,0-11.132,0-16.699c0-2.352,1.558-3.911,3.909-3.911c8.834-0.001,17.669-0.001,26.503,0
			c2.356,0,3.912,1.553,3.912,3.906c0.001,5.566,0.001,11.133,0,16.699c0,2.355-1.557,3.912-3.908,3.912
			C-97.308,21.121-101.725,21.121-106.143,21.121z M-106.125-0.945c-4.431,0-8.861,0-13.292,0c-0.963,0-1.438,0.471-1.438,1.427
			c0,5.58,0,11.16,0,16.739c0,0.985,0.465,1.447,1.457,1.447c8.835,0,17.671,0,26.507,0c0.992,0,1.457-0.461,1.457-1.447
			c0-5.567,0-11.134,0-16.701c0-1.012-0.458-1.466-1.476-1.466C-97.315-0.945-101.72-0.945-106.125-0.945z"/>
		<path fill-rule="evenodd" clip-rule="evenodd" fill="#1E4261" d="M-113.688,26.024c0.144,0,0.296,0,0.449,0
			c7.582,0,15.164,0,22.745,0.001c0.178,0,0.361-0.008,0.534,0.027c0.601,0.121,1.018,0.682,0.975,1.285
			c-0.042,0.603-0.536,1.092-1.149,1.134c-0.14,0.011-0.28,0.004-0.421,0.004c-7.582,0.001-15.164,0.002-22.745-0.006
			c-0.307,0-0.452,0.087-0.595,0.373c-0.678,1.349-1.793,2.085-3.308,2.073c-1.514-0.012-2.615-0.764-3.28-2.12
			c-0.119-0.243-0.24-0.343-0.509-0.325c-0.356,0.023-0.715,0.012-1.072,0.004c-0.712-0.018-1.248-0.555-1.241-1.237
			c0.007-0.67,0.532-1.192,1.228-1.211c0.344-0.009,0.69-0.021,1.033,0.004c0.291,0.021,0.441-0.066,0.573-0.348
			c0.934-1.995,3.35-2.71,5.217-1.562C-114.664,24.484-114.368,24.842-113.688,26.024z M-117.167,26.025
			c-0.667-0.006-1.225,0.539-1.235,1.204c-0.01,0.664,0.533,1.23,1.195,1.245c0.68,0.016,1.254-0.544,1.254-1.224
			C-115.953,26.585-116.502,26.031-117.167,26.025z"/>
		<path fill-rule="evenodd" clip-rule="evenodd" fill="#1E4261" d="M-111.048,8.823c0-1.187,0.004-2.374-0.001-3.561
			c-0.004-1.003,0.394-1.792,1.274-2.282c0.868-0.484,1.737-0.402,2.575,0.118c1.94,1.202,3.888,2.394,5.822,3.605
			c1.733,1.085,1.732,3.234-0.004,4.323c-1.944,1.22-3.9,2.422-5.854,3.627c-0.827,0.51-1.69,0.567-2.542,0.092
			c-0.851-0.474-1.264-1.234-1.269-2.207C-111.052,11.299-111.048,10.061-111.048,8.823z M-108.583,12.601
			c2.037-1.261,4.014-2.485,6.041-3.739c-2.042-1.264-4.021-2.487-6.041-3.737C-108.583,7.637-108.583,10.083-108.583,12.601z"/>
	</g>
</g>
<g>
	<g>
		<path fill-rule="evenodd" clip-rule="evenodd" fill="#1E4261" d="M102.975,0.086c-9.449-0.001-18.896-0.001-28.345,0
			c-1.498,0-2.513,0.897-2.515,2.386C72.113,4.559,72,6.644,72,8.73c0,0.157,0,0.312,0,0.489c-1,0-2.792-0.005-4.209,0.002
			c-1.401,0.005-2.248,0.903-2.248,2.299c-0.003,6.749,0.025,13.497,0.028,20.245c0,1.409,0.932,2.322,2.353,2.324
			c9.489,0.003,18.986,0.002,28.475,0c1.437-0.001,2.346-0.92,2.347-2.36c0.002-6.721,0.003-13.442,0.002-20.164
			c0-0.203-0.003-0.412-0.045-0.609c-0.235-1.088-1.094-1.846-2.299-1.846C89.642,9.108,82.881,9,76.117,9C75.943,9,74,9,74,9
			c0-1,0-3,0-5c11,0,19,0,28,0c0,7,0,14,0,21c0,0,0.604,0,0.887,0c1.534,0,2.449-0.896,2.449-2.431
			c0.001-6.681,0.023-13.373,0.021-20.053C105.357,0.989,104.493,0.086,102.975,0.086z M94,12c0,4,0,8.095,0,11.938
			c0-0.154,0.442-0.254,0.34-0.352c-1.439-1.396-2.521-2.793-3.963-4.187c-0.709-0.687-1.233-0.614-1.805,0.2
			c-1.307,1.861-2.522,3.727-3.826,5.592c-0.645,0.921-1.351,0.965-2.085,0.112c-0.96-1.114-1.892-2.236-2.852-3.351
			c-0.673-0.782-1.294-0.803-2.026-0.072c-2.834,2.834-5.627,5.668-8.461,8.501C69.219,30.485,69,30.582,69,30.729
			C69,24.63,69,18,69,12C78,12,87,12,94,12z"/>
		<path fill-rule="evenodd" clip-rule="evenodd" fill="#1E4261" d="M82.186,20.118c1.666-0.003,2.955-1.289,2.961-2.955
			c0.006-1.682-1.295-2.977-2.984-2.97c-1.688,0.006-2.978,1.31-2.961,2.993C79.218,18.849,80.513,20.122,82.186,20.118z"/>
	</g>
</g>
<g>
	<g>
		<path fill-rule="evenodd" clip-rule="evenodd" fill="#1E4261" d="M12.528,27.682c-0.893-2.799-0.881-5.629,0.371-8.28
			c2.919-6.18,7.92-8.238,14.494-7.012c0-2.341,0.003-4.726,0-7.11c-0.005-3.045-2.227-5.271-5.279-5.277
			c-3.524-0.006-7.093-0.002-10.617,0C11.355,0.001,11,0.016,11,0.025c0,0.201,0,0.359,0,0.518c0,1.756,0.075,3.512,0.024,5.267
			c-0.072,2.55-2.047,4.802-4.567,5.227c-0.472,0.079-0.923,0.094-1.404,0.098C3.38,11.146,2,11.139,0,11.139
			c0,0.185,0,0.316,0,0.448c0,5.803-0.026,11.605-0.022,17.408c0,0.32-0.012,0.647,0.043,0.962c0.454,2.603,2.513,4.337,5.183,4.342
			c4.007,0.008,8.011,0.002,12.018,0.001c0.126,0,0.252-0.012,0.485-0.024C15.167,32.632,13.42,30.478,12.528,27.682z"/>
		<path fill-rule="evenodd" clip-rule="evenodd" fill="#1E4261" d="M23.993,13.713c-5.661-0.033-10.322,4.608-10.33,10.288
			C13.654,29.669,18.244,34.272,23.93,34.3c5.692,0.026,10.308-4.569,10.317-10.275C34.258,18.348,29.683,13.747,23.993,13.713z
			 M23.977,18.862c0.935,0.012,1.709,0.796,1.705,1.725c-0.007,0.936-0.779,1.707-1.715,1.71c-0.941,0.002-1.712-0.761-1.719-1.701
			C22.239,19.643,23.03,18.85,23.977,18.862z M25.635,27.755c-0.144,0.882-0.91,1.45-1.822,1.39
			c-0.834-0.056-1.527-0.752-1.559-1.604c-0.023-0.628-0.021-1.259-0.002-1.886c0.029-0.883,0.726-1.576,1.618-1.642
			c0.843-0.061,1.633,0.558,1.769,1.423c0.058,0.38,0.045,0.771,0.065,1.174C25.684,26.982,25.696,27.375,25.635,27.755z"/>
		<path fill-rule="evenodd" clip-rule="evenodd" fill="#1E4261" d="M5.832,9.389c1.819-0.105,3.309-1.48,3.455-3.298
			c0.154-1.914,0.035-3.85,0.035-5.619C6.381,3.411,3.353,6.439,0.378,9.413C2.116,9.413,3.979,9.496,5.832,9.389z"/>
	</g>
</g>
<g>
	<g>
		<path fill-rule="evenodd" clip-rule="evenodd" fill="#1E4261" d="M-60.665,23.797c0-8.604-0.004-17.022,0.009-25.627
			c0-0.624-0.165-1.17-0.75-1.17c-6.238,0-12.477,0-18.715,0c-0.583,0-0.751,0.563-0.75,1.189
			c0.014,8.593,0.009,17.063,0.009,25.657c0,0.923,0.354,1.153,1.281,1.153c5.889,0,11.778,0,17.668,0
			C-61.032,25-60.665,24.672-60.665,23.797z M-76.703,1.784c1.938-0.002,3.876-0.001,5.814,0c0.679,0,1.138,0.414,1.135,1.014
			s-0.461,1.003-1.145,1.005c-0.963,0.002-1.927,0-2.89,0c-0.975,0-1.949,0.002-2.924,0c-0.655-0.002-1.11-0.412-1.118-0.998
			C-77.838,2.206-77.376,1.785-76.703,1.784z M-77.721,6.388c0.203-0.4,0.547-0.566,0.99-0.566c2.107,0.003,4.215,0.001,6.322,0.001
			c1.883,0,3.767-0.004,5.649,0.002c0.797,0.003,1.294,0.752,0.96,1.438c-0.203,0.418-0.559,0.583-1.014,0.582
			c-1.984-0.004-3.968-0.001-5.952-0.001c-1.995,0-3.991,0.003-5.986-0.002C-77.568,7.839-78.072,7.081-77.721,6.388z
			 M-77.744,10.472c0.197-0.433,0.557-0.613,1.03-0.612c1.995,0.005,3.99,0.002,5.985,0.002c1.984,0,3.968-0.003,5.953,0.001
			c0.818,0.002,1.319,0.757,0.97,1.452c-0.202,0.402-0.547,0.567-0.989,0.567c-1.838-0.002-3.677-0.001-5.515-0.001
			c-2.141,0-4.282,0.002-6.423-0.001C-77.541,11.879-78.057,11.161-77.744,10.472z M-64.784,19.96
			c-0.639,0.004-1.277,0.001-1.915,0.001c-0.649,0-1.299,0.002-1.948-0.001c-0.649-0.004-1.104-0.423-1.104-1.01
			s0.457-1.007,1.106-1.008c1.288-0.002,2.575-0.003,3.863,0c0.629,0.001,1.078,0.416,1.087,0.992
			C-63.686,19.523-64.141,19.955-64.784,19.96z M-64.762,15.919c-2.006,0.006-4.013,0.002-6.02,0.002
			c-1.995,0-3.991,0.004-5.986-0.002c-0.781-0.002-1.284-0.731-0.977-1.408c0.184-0.405,0.516-0.608,0.963-0.609
			c0.964-0.002,1.928-0.001,2.892-0.001c3.016,0,6.031,0.002,9.046-0.002c0.452-0.001,0.815,0.141,1.031,0.554
			C-63.452,15.144-63.949,15.917-64.762,15.919z"/>
		<path fill-rule="evenodd" clip-rule="evenodd" fill="#1E4261" d="M-55,26.819c0-7.615,0-15.231,0-22.847
			c0-0.789-0.192-1.178-0.979-1.179c-0.852-0.001-1.783-0.001-2.636,0c-0.097,0-0.386,0.012-0.386,0.02c0,0.159,0,0.292,0,0.425
			c0,6.853,0,13.706,0,20.559c0,2.04-0.897,3.202-2.928,3.202c-4.15,0-8.3,0-12.45,0c-0.131,0-0.263,0-0.424,0
			c0,1,0.026,1.782-0.009,2.664c-0.025,0.627,0.167,1.165,0.75,1.336c6.238,0,12.477,0,18.715,0
			c0.582-0.171,0.574-0.661,0.552-1.288C-54.828,28.726-55,27.807-55,26.819z"/>
	</g>
</g>
<rect x="257" y="-192" fill-rule="evenodd" clip-rule="evenodd" width="41" height="33"/>
</svg>
