<?xml version="1.0" encoding="utf-8"?>
<!-- Generator: Adobe Illustrator 16.0.0, SVG Export Plug-In . SVG Version: 6.00 Build 0)  -->
<!DOCTYPE svg PUBLIC "-//W3C//DTD SVG 1.1//EN" "http://www.w3.org/Graphics/SVG/1.1/DTD/svg11.dtd">
<svg version="1.1" id="Camada_1" xmlns="http://www.w3.org/2000/svg" xmlns:xlink="http://www.w3.org/1999/xlink" x="0px" y="0px"
	 width="315px" height="260px" viewBox="0 0 315 260" enable-background="new 0 0 315 260" xml:space="preserve">
<g>
	<g>
		<g>
			<path fill="#1E4261" d="M211.17,57.39c0,29.105-23.592,52.697-52.689,52.697c-29.11,0-52.699-23.592-52.699-52.697
				c0-29.103,23.589-52.7,52.699-52.7C187.578,4.689,211.17,28.287,211.17,57.39z"/>
		</g>
		<g>
			<path fill="#1E4261" d="M158.48,132.044L158.48,132.044c-54.007,0-97.77,43.771-97.77,97.777l0,0
				c0,14.168,11.485,25.653,25.653,25.653h144.221c14.171,0,25.668-11.485,25.668-25.653l0,0
				C256.253,175.814,212.475,132.044,158.48,132.044z"/>
		</g>
	</g>
</g>
</svg>
